%TF.GenerationSoftware,KiCad,Pcbnew,7.0.1*%
%TF.CreationDate,2024-03-13T10:09:07+01:00*%
%TF.ProjectId,bar_test_proto,6261725f-7465-4737-945f-70726f746f2e,rev?*%
%TF.SameCoordinates,Original*%
%TF.FileFunction,Copper,L1,Top*%
%TF.FilePolarity,Positive*%
%FSLAX46Y46*%
G04 Gerber Fmt 4.6, Leading zero omitted, Abs format (unit mm)*
G04 Created by KiCad (PCBNEW 7.0.1) date 2024-03-13 10:09:07*
%MOMM*%
%LPD*%
G01*
G04 APERTURE LIST*
%TA.AperFunction,SMDPad,CuDef*%
%ADD10R,5.000000X10.000000*%
%TD*%
%TA.AperFunction,SMDPad,CuDef*%
%ADD11R,1.300000X0.700000*%
%TD*%
%TA.AperFunction,ComponentPad*%
%ADD12C,2.600000*%
%TD*%
%TA.AperFunction,ComponentPad*%
%ADD13C,2.500000*%
%TD*%
%TA.AperFunction,SMDPad,CuDef*%
%ADD14R,1.250000X1.000000*%
%TD*%
%TA.AperFunction,SMDPad,CuDef*%
%ADD15R,1.700000X0.900000*%
%TD*%
%TA.AperFunction,SMDPad,CuDef*%
%ADD16R,1.143000X0.508000*%
%TD*%
%TA.AperFunction,ViaPad*%
%ADD17C,0.800000*%
%TD*%
%TA.AperFunction,Conductor*%
%ADD18C,0.400000*%
%TD*%
%TA.AperFunction,Conductor*%
%ADD19C,2.500000*%
%TD*%
%TA.AperFunction,Conductor*%
%ADD20C,1.500000*%
%TD*%
%TA.AperFunction,Conductor*%
%ADD21C,0.800000*%
%TD*%
G04 APERTURE END LIST*
D10*
%TO.P,ADC1,1*%
%TO.N,ADC1*%
X149225000Y-94615000D03*
%TD*%
D11*
%TO.P,R7,1,1*%
%TO.N,Net-(U1B--)*%
X154305000Y-69530000D03*
%TO.P,R7,2,2*%
%TO.N,Net-(CON2-S)*%
X154305000Y-67630000D03*
%TD*%
%TO.P,R9,1,1*%
%TO.N,GND*%
X144145000Y-84770000D03*
%TO.P,R9,2,2*%
%TO.N,Net-(U1A-+)*%
X144145000Y-82870000D03*
%TD*%
%TO.P,R10,1,1*%
%TO.N,Net-(U1A-+)*%
X140970000Y-82870000D03*
%TO.P,R10,2,2*%
%TO.N,Vref*%
X140970000Y-84770000D03*
%TD*%
%TO.P,R6,1,1*%
%TO.N,ADC2*%
X156845000Y-72075000D03*
%TO.P,R6,2,2*%
%TO.N,Net-(CON2-G)*%
X156845000Y-73975000D03*
%TD*%
D10*
%TO.P,+12V,1*%
%TO.N,+12V0*%
X132715000Y-94615000D03*
%TD*%
D12*
%TO.P,CON2,1,D*%
%TO.N,+24V*%
X152475000Y-54610000D03*
X152475000Y-62840000D03*
%TO.P,CON2,2,S*%
%TO.N,Net-(CON2-S)*%
X159655000Y-54610000D03*
X159655000Y-62840000D03*
D13*
%TO.P,CON2,3,SK*%
%TO.N,unconnected-(CON2-SK-Pad3)*%
X163195000Y-54610000D03*
X163195000Y-62840000D03*
%TO.P,CON2,4,G*%
%TO.N,Net-(CON2-G)*%
X165925000Y-54610000D03*
X165925000Y-62840000D03*
%TD*%
D10*
%TO.P,ADC2,1*%
%TO.N,ADC2*%
X158115000Y-94615000D03*
%TD*%
D11*
%TO.P,R3,1,1*%
%TO.N,Net-(U1A--)*%
X135890000Y-69530000D03*
%TO.P,R3,2,2*%
%TO.N,Net-(CON1-S)*%
X135890000Y-67630000D03*
%TD*%
D12*
%TO.P,CON1,1,D*%
%TO.N,+24V*%
X124900000Y-54610000D03*
X124900000Y-62840000D03*
%TO.P,CON1,2,S*%
%TO.N,Net-(CON1-S)*%
X132080000Y-54610000D03*
X132080000Y-62840000D03*
D13*
%TO.P,CON1,3,SK*%
%TO.N,unconnected-(CON1-SK-Pad3)*%
X135620000Y-54610000D03*
X135620000Y-62840000D03*
%TO.P,CON1,4,G*%
%TO.N,Net-(CON1-G)*%
X138350000Y-54610000D03*
X138350000Y-62840000D03*
%TD*%
D10*
%TO.P,GND,1*%
%TO.N,GND*%
X166370000Y-94615000D03*
%TD*%
D14*
%TO.P,C3,1,A*%
%TO.N,+12V0*%
X148752504Y-69540534D03*
%TO.P,C3,2,K*%
%TO.N,GND*%
X148752504Y-67540534D03*
%TD*%
%TO.P,C2,1,A*%
%TO.N,Net-(C2-A)*%
X154305000Y-74025000D03*
%TO.P,C2,2,K*%
%TO.N,ADC2*%
X154305000Y-72025000D03*
%TD*%
D15*
%TO.P,R2,1,1*%
%TO.N,GND*%
X132080000Y-70030000D03*
%TO.P,R2,2,2*%
%TO.N,Net-(CON1-S)*%
X132080000Y-67130000D03*
%TD*%
%TO.P,R8,1,1*%
%TO.N,GND*%
X159385000Y-70030000D03*
%TO.P,R8,2,2*%
%TO.N,Net-(CON2-S)*%
X159385000Y-67130000D03*
%TD*%
D10*
%TO.P,+24V,1*%
%TO.N,+24V*%
X124460000Y-94615000D03*
%TD*%
%TO.P,Vref,1*%
%TO.N,Vref*%
X140970000Y-94615000D03*
%TD*%
D11*
%TO.P,R1,1,1*%
%TO.N,ADC1*%
X139065000Y-69530000D03*
%TO.P,R1,2,2*%
%TO.N,Net-(CON1-G)*%
X139065000Y-67630000D03*
%TD*%
D16*
%TO.P,U1,1*%
%TO.N,ADC1*%
X142240000Y-71755000D03*
%TO.P,U1,2,-*%
%TO.N,Net-(U1A--)*%
X142240000Y-73025000D03*
%TO.P,U1,3,+*%
%TO.N,Net-(U1A-+)*%
X142240000Y-74295000D03*
%TO.P,U1,4,V-*%
%TO.N,GND*%
X142240000Y-75565000D03*
%TO.P,U1,5,+*%
%TO.N,Net-(U1A-+)*%
X148590000Y-75565000D03*
%TO.P,U1,6,-*%
%TO.N,Net-(U1B--)*%
X148590000Y-74295000D03*
%TO.P,U1,7*%
%TO.N,ADC2*%
X148590000Y-73025000D03*
%TO.P,U1,8,V+*%
%TO.N,+12V0*%
X148590000Y-71755000D03*
%TD*%
D14*
%TO.P,C1,1,A*%
%TO.N,Net-(C1-A)*%
X139065000Y-73390000D03*
%TO.P,C1,2,K*%
%TO.N,ADC1*%
X139065000Y-71390000D03*
%TD*%
D11*
%TO.P,R4,1,1*%
%TO.N,Net-(U1A--)*%
X135890000Y-71440000D03*
%TO.P,R4,2,2*%
%TO.N,Net-(C1-A)*%
X135890000Y-73340000D03*
%TD*%
%TO.P,R5,1,1*%
%TO.N,Net-(U1B--)*%
X151765000Y-75880000D03*
%TO.P,R5,2,2*%
%TO.N,Net-(C2-A)*%
X151765000Y-73980000D03*
%TD*%
D17*
%TO.N,ADC1*%
X145415000Y-77470000D03*
X145415000Y-74295000D03*
%TO.N,ADC2*%
X146685000Y-74295000D03*
X146685000Y-77470000D03*
%TO.N,GND*%
X167005000Y-88265000D03*
X158750000Y-71755000D03*
X164465000Y-88265000D03*
X131445000Y-73025000D03*
X165735000Y-88265000D03*
X168275000Y-88265000D03*
X160009122Y-72718544D03*
X158738919Y-72679581D03*
X132715000Y-73025000D03*
X132715000Y-71755000D03*
X131445000Y-71755000D03*
X160020000Y-71755000D03*
%TO.N,Net-(U1B--)*%
X150128780Y-74299390D03*
X150495000Y-71755000D03*
%TO.N,+12V0*%
X147320000Y-71755000D03*
X132715000Y-86360000D03*
%TD*%
D18*
%TO.N,Net-(C1-A)*%
X139065000Y-73390000D02*
X135940000Y-73390000D01*
X135940000Y-73390000D02*
X135890000Y-73340000D01*
%TO.N,ADC1*%
X145415000Y-73660000D02*
X145415000Y-74295000D01*
X149225000Y-81280000D02*
X145415000Y-77470000D01*
X140512334Y-71390000D02*
X139065000Y-71390000D01*
X139065000Y-69530000D02*
X139065000Y-71390000D01*
X142240000Y-71755000D02*
X143510000Y-71755000D01*
X149225000Y-94615000D02*
X149225000Y-81280000D01*
X143510000Y-71755000D02*
X145415000Y-73660000D01*
X142240000Y-71755000D02*
X140877334Y-71755000D01*
X140877334Y-71755000D02*
X140512334Y-71390000D01*
%TO.N,Net-(C2-A)*%
X154260000Y-73980000D02*
X154305000Y-74025000D01*
X151765000Y-73980000D02*
X154260000Y-73980000D01*
%TO.N,ADC2*%
X146685000Y-73660000D02*
X146685000Y-74295000D01*
X147320000Y-73025000D02*
X146685000Y-73660000D01*
X158115000Y-94615000D02*
X158115000Y-88900000D01*
X158115000Y-88900000D02*
X146685000Y-77470000D01*
X154305000Y-72025000D02*
X156795000Y-72025000D01*
X148590000Y-73025000D02*
X151958929Y-73025000D01*
X156795000Y-72025000D02*
X156845000Y-72075000D01*
X151958929Y-73025000D02*
X152958929Y-72025000D01*
X148590000Y-73025000D02*
X147320000Y-73025000D01*
X152958929Y-72025000D02*
X154305000Y-72025000D01*
D19*
%TO.N,+24V*%
X124900000Y-62840000D02*
X124900000Y-94175000D01*
X124900000Y-62840000D02*
X124900000Y-54610000D01*
D20*
X124900000Y-94175000D02*
X124460000Y-94615000D01*
D19*
X152475000Y-62840000D02*
X152475000Y-54610000D01*
D18*
%TO.N,Net-(CON1-S)*%
X133722607Y-67130000D02*
X134222607Y-67630000D01*
X132080000Y-67130000D02*
X133722607Y-67130000D01*
X134222607Y-67630000D02*
X135890000Y-67630000D01*
D21*
X132080000Y-62840000D02*
X132080000Y-67130000D01*
X132080000Y-62840000D02*
X132080000Y-54610000D01*
D18*
%TO.N,unconnected-(CON1-SK-Pad3)*%
X135620000Y-62840000D02*
X135620000Y-54610000D01*
%TO.N,Net-(CON1-G)*%
X138350000Y-62840000D02*
X138350000Y-65325000D01*
X138350000Y-62840000D02*
X138350000Y-54610000D01*
X139065000Y-66040000D02*
X139065000Y-67630000D01*
X138350000Y-65325000D02*
X139065000Y-66040000D01*
D21*
%TO.N,Net-(CON2-S)*%
X159655000Y-62840000D02*
X159655000Y-66860000D01*
X159655000Y-66860000D02*
X159385000Y-67130000D01*
X159655000Y-62840000D02*
X159655000Y-54610000D01*
D18*
X154305000Y-67630000D02*
X156769923Y-67630000D01*
X156769923Y-67630000D02*
X157269923Y-67130000D01*
X157269923Y-67130000D02*
X159385000Y-67130000D01*
%TO.N,unconnected-(CON2-SK-Pad3)*%
X163195000Y-62840000D02*
X163195000Y-54610000D01*
%TO.N,Net-(CON2-G)*%
X165930296Y-69142498D02*
X165925000Y-69137202D01*
X165925000Y-62840000D02*
X165925000Y-54610000D01*
X165925000Y-69137202D02*
X165925000Y-62840000D01*
X161097794Y-73975000D02*
X165930296Y-69142498D01*
X156845000Y-73975000D02*
X161097794Y-73975000D01*
%TO.N,Net-(U1A--)*%
X134935000Y-71440000D02*
X134620000Y-71755000D01*
X134962875Y-74480767D02*
X140057453Y-74480767D01*
X141513220Y-73025000D02*
X142240000Y-73025000D01*
X140057453Y-74480767D02*
X141513220Y-73025000D01*
X135890000Y-71440000D02*
X134935000Y-71440000D01*
X134620000Y-74137892D02*
X134962875Y-74480767D01*
X135890000Y-69530000D02*
X135890000Y-71440000D01*
X134620000Y-71755000D02*
X134620000Y-74137892D01*
%TO.N,Net-(U1B--)*%
X150128780Y-74299390D02*
X150128780Y-75198780D01*
X150128780Y-75198780D02*
X150810000Y-75880000D01*
X150124390Y-74295000D02*
X150128780Y-74299390D01*
X152720000Y-69530000D02*
X154305000Y-69530000D01*
X150810000Y-75880000D02*
X151765000Y-75880000D01*
X150495000Y-71755000D02*
X152720000Y-69530000D01*
X148590000Y-74295000D02*
X150124390Y-74295000D01*
%TO.N,Net-(U1A-+)*%
X144145000Y-74930000D02*
X143510000Y-74295000D01*
X143510000Y-74295000D02*
X142240000Y-74295000D01*
X144145000Y-75565000D02*
X144145000Y-74930000D01*
X148590000Y-75565000D02*
X144145000Y-75565000D01*
X144145000Y-82870000D02*
X144145000Y-75565000D01*
X140970000Y-82870000D02*
X144145000Y-82870000D01*
%TO.N,Vref*%
X140970000Y-94615000D02*
X140970000Y-84770000D01*
%TO.N,+12V0*%
X148590000Y-71755000D02*
X147320000Y-71755000D01*
X148590000Y-69703038D02*
X148752504Y-69540534D01*
X132715000Y-94615000D02*
X132715000Y-86360000D01*
X148590000Y-71755000D02*
X148590000Y-69703038D01*
%TD*%
%TA.AperFunction,Conductor*%
%TO.N,GND*%
G36*
X161533440Y-63435983D02*
G01*
X161567284Y-63484061D01*
X161592721Y-63548874D01*
X161613432Y-63601643D01*
X161744614Y-63828857D01*
X161908195Y-64033981D01*
X161908197Y-64033983D01*
X161908198Y-64033984D01*
X162100514Y-64212428D01*
X162100520Y-64212432D01*
X162100521Y-64212433D01*
X162317296Y-64360228D01*
X162553677Y-64474063D01*
X162804385Y-64551396D01*
X163063818Y-64590500D01*
X163326182Y-64590500D01*
X163585615Y-64551396D01*
X163836323Y-64474063D01*
X164072704Y-64360228D01*
X164289479Y-64212433D01*
X164475659Y-64039683D01*
X164529402Y-64010416D01*
X164590598Y-64010416D01*
X164644340Y-64039683D01*
X164722592Y-64112289D01*
X164830518Y-64212431D01*
X164830521Y-64212433D01*
X165047296Y-64360228D01*
X165047299Y-64360229D01*
X165047300Y-64360230D01*
X165154301Y-64411759D01*
X165205494Y-64457507D01*
X165224500Y-64523479D01*
X165224500Y-68806275D01*
X165215061Y-68853728D01*
X165188181Y-68893956D01*
X160843956Y-73238181D01*
X160803728Y-73265061D01*
X160756275Y-73274500D01*
X157903230Y-73274500D01*
X157864071Y-73268154D01*
X157828919Y-73249767D01*
X157813649Y-73238336D01*
X157737331Y-73181204D01*
X157675169Y-73158019D01*
X157630025Y-73141181D01*
X157580815Y-73107531D01*
X157552995Y-73054806D01*
X157552995Y-72995191D01*
X157580816Y-72942466D01*
X157630024Y-72908818D01*
X157737331Y-72868796D01*
X157852546Y-72782546D01*
X157938796Y-72667331D01*
X157989091Y-72532483D01*
X157995500Y-72472873D01*
X157995499Y-71677128D01*
X157989091Y-71617517D01*
X157938796Y-71482669D01*
X157852546Y-71367454D01*
X157737331Y-71281204D01*
X157602483Y-71230909D01*
X157542873Y-71224500D01*
X157542869Y-71224500D01*
X156147130Y-71224500D01*
X156087515Y-71230909D01*
X155952669Y-71281204D01*
X155927871Y-71299768D01*
X155892720Y-71318155D01*
X155853561Y-71324500D01*
X155467180Y-71324500D01*
X155411676Y-71311384D01*
X155367913Y-71274811D01*
X155367780Y-71274634D01*
X155287546Y-71167454D01*
X155172331Y-71081204D01*
X155037483Y-71030909D01*
X154977873Y-71024500D01*
X154977869Y-71024500D01*
X153632130Y-71024500D01*
X153572515Y-71030909D01*
X153437669Y-71081204D01*
X153322453Y-71167454D01*
X153268794Y-71239134D01*
X153250825Y-71263139D01*
X153242087Y-71274811D01*
X153198324Y-71311384D01*
X153142820Y-71324500D01*
X152983850Y-71324500D01*
X152976363Y-71324274D01*
X152916320Y-71320641D01*
X152857156Y-71331483D01*
X152849757Y-71332610D01*
X152790053Y-71339860D01*
X152780580Y-71343453D01*
X152758976Y-71349476D01*
X152748998Y-71351305D01*
X152694154Y-71375987D01*
X152687239Y-71378851D01*
X152630999Y-71400181D01*
X152622652Y-71405943D01*
X152603116Y-71416961D01*
X152593875Y-71421120D01*
X152546538Y-71458206D01*
X152540508Y-71462643D01*
X152490999Y-71496817D01*
X152451106Y-71541846D01*
X152445973Y-71547298D01*
X151705091Y-72288181D01*
X151664863Y-72315061D01*
X151617410Y-72324500D01*
X151420782Y-72324500D01*
X151358782Y-72307887D01*
X151313395Y-72262501D01*
X151296782Y-72200501D01*
X151313394Y-72138502D01*
X151322178Y-72123285D01*
X151322179Y-72123284D01*
X151380674Y-71943256D01*
X151385864Y-71893866D01*
X151397263Y-71853450D01*
X151421500Y-71819155D01*
X152973837Y-70266819D01*
X153014066Y-70239939D01*
X153061519Y-70230500D01*
X153246770Y-70230500D01*
X153285929Y-70236846D01*
X153321080Y-70255232D01*
X153412669Y-70323796D01*
X153547517Y-70374091D01*
X153607127Y-70380500D01*
X155002872Y-70380499D01*
X155062483Y-70374091D01*
X155197331Y-70323796D01*
X155255835Y-70280000D01*
X158035000Y-70280000D01*
X158035000Y-70527824D01*
X158041402Y-70587375D01*
X158091647Y-70722089D01*
X158177811Y-70837188D01*
X158292910Y-70923352D01*
X158427624Y-70973597D01*
X158487176Y-70980000D01*
X159135000Y-70980000D01*
X159135000Y-70280000D01*
X159635000Y-70280000D01*
X159635000Y-70980000D01*
X160282824Y-70980000D01*
X160342375Y-70973597D01*
X160477089Y-70923352D01*
X160592188Y-70837188D01*
X160678352Y-70722089D01*
X160728597Y-70587375D01*
X160735000Y-70527824D01*
X160735000Y-70280000D01*
X159635000Y-70280000D01*
X159135000Y-70280000D01*
X158035000Y-70280000D01*
X155255835Y-70280000D01*
X155312546Y-70237546D01*
X155398796Y-70122331D01*
X155449091Y-69987483D01*
X155455500Y-69927873D01*
X155455500Y-69780000D01*
X158035000Y-69780000D01*
X159135000Y-69780000D01*
X159135000Y-69080000D01*
X159635000Y-69080000D01*
X159635000Y-69780000D01*
X160735000Y-69780000D01*
X160735000Y-69532176D01*
X160728597Y-69472624D01*
X160678352Y-69337910D01*
X160592188Y-69222811D01*
X160477089Y-69136647D01*
X160342375Y-69086402D01*
X160282824Y-69080000D01*
X159635000Y-69080000D01*
X159135000Y-69080000D01*
X158487176Y-69080000D01*
X158427624Y-69086402D01*
X158292910Y-69136647D01*
X158177811Y-69222811D01*
X158091647Y-69337910D01*
X158041402Y-69472624D01*
X158035000Y-69532176D01*
X158035000Y-69780000D01*
X155455500Y-69780000D01*
X155455499Y-69132128D01*
X155449091Y-69072517D01*
X155398796Y-68937669D01*
X155312546Y-68822454D01*
X155197331Y-68736204D01*
X155151016Y-68718929D01*
X155090025Y-68696181D01*
X155040815Y-68662531D01*
X155012995Y-68609806D01*
X155012995Y-68550191D01*
X155040816Y-68497466D01*
X155090024Y-68463818D01*
X155197331Y-68423796D01*
X155288919Y-68355232D01*
X155324071Y-68336846D01*
X155363230Y-68330500D01*
X156745002Y-68330500D01*
X156752489Y-68330726D01*
X156755629Y-68330915D01*
X156812529Y-68334358D01*
X156871705Y-68323513D01*
X156879104Y-68322387D01*
X156938795Y-68315140D01*
X156948258Y-68311550D01*
X156969881Y-68305522D01*
X156979855Y-68303695D01*
X157034731Y-68278996D01*
X157041596Y-68276152D01*
X157097853Y-68254818D01*
X157106193Y-68249060D01*
X157125742Y-68238035D01*
X157134980Y-68233878D01*
X157182336Y-68196775D01*
X157188349Y-68192352D01*
X157237852Y-68158183D01*
X157277746Y-68113149D01*
X157282831Y-68107747D01*
X157523763Y-67866816D01*
X157563989Y-67839939D01*
X157611442Y-67830500D01*
X158035249Y-67830500D01*
X158090753Y-67843616D01*
X158134515Y-67880189D01*
X158177451Y-67937543D01*
X158177452Y-67937544D01*
X158177454Y-67937546D01*
X158292669Y-68023796D01*
X158427517Y-68074091D01*
X158487127Y-68080500D01*
X160282872Y-68080499D01*
X160342483Y-68074091D01*
X160477331Y-68023796D01*
X160592546Y-67937546D01*
X160678796Y-67822331D01*
X160729091Y-67687483D01*
X160735500Y-67627873D01*
X160735499Y-66632128D01*
X160729091Y-66572517D01*
X160678796Y-66437669D01*
X160592546Y-66322454D01*
X160592545Y-66322453D01*
X160581862Y-66308182D01*
X160584009Y-66306574D01*
X160568621Y-66288166D01*
X160555500Y-66232652D01*
X160555500Y-64470738D01*
X160569870Y-64412797D01*
X160609646Y-64368285D01*
X160780741Y-64251635D01*
X160978561Y-64068085D01*
X161146815Y-63857102D01*
X161281743Y-63623398D01*
X161336430Y-63484058D01*
X161370271Y-63435983D01*
X161422458Y-63408899D01*
X161481253Y-63408899D01*
X161533440Y-63435983D01*
G37*
%TD.AperFunction*%
%TA.AperFunction,Conductor*%
G36*
X170117500Y-50817113D02*
G01*
X170162887Y-50862500D01*
X170179500Y-50924500D01*
X170179500Y-100840500D01*
X170162887Y-100902500D01*
X170117500Y-100947887D01*
X170055500Y-100964500D01*
X120139500Y-100964500D01*
X120077500Y-100947887D01*
X120032113Y-100902500D01*
X120015500Y-100840500D01*
X120015500Y-99662869D01*
X121459500Y-99662869D01*
X121465897Y-99722375D01*
X121465909Y-99722483D01*
X121516204Y-99857331D01*
X121602454Y-99972546D01*
X121717669Y-100058796D01*
X121852517Y-100109091D01*
X121912127Y-100115500D01*
X127007872Y-100115499D01*
X127067483Y-100109091D01*
X127202331Y-100058796D01*
X127317546Y-99972546D01*
X127403796Y-99857331D01*
X127454091Y-99722483D01*
X127460500Y-99662873D01*
X127460500Y-99662869D01*
X129714500Y-99662869D01*
X129720897Y-99722375D01*
X129720909Y-99722483D01*
X129771204Y-99857331D01*
X129857454Y-99972546D01*
X129972669Y-100058796D01*
X130107517Y-100109091D01*
X130167127Y-100115500D01*
X135262872Y-100115499D01*
X135322483Y-100109091D01*
X135457331Y-100058796D01*
X135572546Y-99972546D01*
X135658796Y-99857331D01*
X135709091Y-99722483D01*
X135715500Y-99662873D01*
X135715499Y-89567128D01*
X135709091Y-89507517D01*
X135658796Y-89372669D01*
X135572546Y-89257454D01*
X135457331Y-89171204D01*
X135322483Y-89120909D01*
X135262873Y-89114500D01*
X135262869Y-89114500D01*
X133539500Y-89114500D01*
X133477500Y-89097887D01*
X133432113Y-89052500D01*
X133415500Y-88990500D01*
X133415500Y-86975392D01*
X133423736Y-86930955D01*
X133447350Y-86892420D01*
X133447533Y-86892216D01*
X133542179Y-86728284D01*
X133542179Y-86728283D01*
X133600674Y-86548256D01*
X133620460Y-86360000D01*
X133600674Y-86171744D01*
X133542179Y-85991716D01*
X133542179Y-85991715D01*
X133447533Y-85827783D01*
X133320870Y-85687110D01*
X133167730Y-85575848D01*
X132994802Y-85498855D01*
X132809648Y-85459500D01*
X132809646Y-85459500D01*
X132620354Y-85459500D01*
X132620352Y-85459500D01*
X132435197Y-85498855D01*
X132262269Y-85575848D01*
X132109129Y-85687110D01*
X131982466Y-85827783D01*
X131887820Y-85991715D01*
X131829326Y-86171742D01*
X131809540Y-86359999D01*
X131829326Y-86548257D01*
X131887820Y-86728284D01*
X131982466Y-86892216D01*
X131982650Y-86892420D01*
X132006264Y-86930955D01*
X132014500Y-86975392D01*
X132014500Y-88990501D01*
X131997887Y-89052501D01*
X131952500Y-89097888D01*
X131890500Y-89114501D01*
X130167128Y-89114501D01*
X130137322Y-89117705D01*
X130107515Y-89120909D01*
X129972669Y-89171204D01*
X129857454Y-89257454D01*
X129771204Y-89372668D01*
X129720909Y-89507516D01*
X129714500Y-89567130D01*
X129714500Y-99662869D01*
X127460500Y-99662869D01*
X127460499Y-89567128D01*
X127454091Y-89507517D01*
X127403796Y-89372669D01*
X127317546Y-89257454D01*
X127202331Y-89171204D01*
X127067483Y-89120909D01*
X127007873Y-89114500D01*
X127007869Y-89114500D01*
X126774500Y-89114500D01*
X126712500Y-89097887D01*
X126667113Y-89052500D01*
X126650500Y-88990500D01*
X126650500Y-75815000D01*
X141168500Y-75815000D01*
X141168500Y-75866824D01*
X141174902Y-75926375D01*
X141225147Y-76061089D01*
X141311311Y-76176188D01*
X141426410Y-76262352D01*
X141561124Y-76312597D01*
X141620676Y-76319000D01*
X141990000Y-76319000D01*
X141990000Y-75815000D01*
X141168500Y-75815000D01*
X126650500Y-75815000D01*
X126650500Y-70280000D01*
X130730000Y-70280000D01*
X130730000Y-70527824D01*
X130736402Y-70587375D01*
X130786647Y-70722089D01*
X130872811Y-70837188D01*
X130987910Y-70923352D01*
X131122624Y-70973597D01*
X131182176Y-70980000D01*
X131830000Y-70980000D01*
X131830000Y-70280000D01*
X132330000Y-70280000D01*
X132330000Y-70980000D01*
X132977824Y-70980000D01*
X133037375Y-70973597D01*
X133172089Y-70923352D01*
X133287188Y-70837188D01*
X133373352Y-70722089D01*
X133423597Y-70587375D01*
X133430000Y-70527824D01*
X133430000Y-70280000D01*
X132330000Y-70280000D01*
X131830000Y-70280000D01*
X130730000Y-70280000D01*
X126650500Y-70280000D01*
X126650500Y-69780000D01*
X130730000Y-69780000D01*
X131830000Y-69780000D01*
X131830000Y-69080000D01*
X132330000Y-69080000D01*
X132330000Y-69780000D01*
X133430000Y-69780000D01*
X133430000Y-69532176D01*
X133423597Y-69472624D01*
X133373352Y-69337910D01*
X133287188Y-69222811D01*
X133172089Y-69136647D01*
X133037375Y-69086402D01*
X132977824Y-69080000D01*
X132330000Y-69080000D01*
X131830000Y-69080000D01*
X131182176Y-69080000D01*
X131122624Y-69086402D01*
X130987910Y-69136647D01*
X130872811Y-69222811D01*
X130786647Y-69337910D01*
X130736402Y-69472624D01*
X130730000Y-69532176D01*
X130730000Y-69780000D01*
X126650500Y-69780000D01*
X126650500Y-63275907D01*
X126653609Y-63248314D01*
X126657202Y-63232569D01*
X126685383Y-63109103D01*
X126705549Y-62840000D01*
X130274450Y-62840000D01*
X130294616Y-63109100D01*
X130294617Y-63109103D01*
X130354666Y-63372195D01*
X130453257Y-63623398D01*
X130588185Y-63857102D01*
X130756439Y-64068085D01*
X130912004Y-64212428D01*
X130954261Y-64251637D01*
X131125352Y-64368285D01*
X131165130Y-64412797D01*
X131179500Y-64470738D01*
X131179500Y-66078561D01*
X131169488Y-66127374D01*
X131141070Y-66168304D01*
X131098834Y-66194741D01*
X130987669Y-66236203D01*
X130987669Y-66236204D01*
X130872454Y-66322454D01*
X130786204Y-66437668D01*
X130735909Y-66572516D01*
X130729500Y-66632130D01*
X130729500Y-67627869D01*
X130735909Y-67687483D01*
X130786204Y-67822331D01*
X130872454Y-67937546D01*
X130987669Y-68023796D01*
X131122517Y-68074091D01*
X131182127Y-68080500D01*
X132977872Y-68080499D01*
X133037483Y-68074091D01*
X133172331Y-68023796D01*
X133287546Y-67937546D01*
X133309650Y-67908018D01*
X133349490Y-67873497D01*
X133400071Y-67858645D01*
X133452250Y-67866147D01*
X133496598Y-67894648D01*
X133709665Y-68107715D01*
X133714785Y-68113153D01*
X133745576Y-68147909D01*
X133754679Y-68158184D01*
X133804180Y-68192352D01*
X133810198Y-68196780D01*
X133857551Y-68233878D01*
X133866787Y-68238034D01*
X133886338Y-68249062D01*
X133894673Y-68254816D01*
X133894675Y-68254816D01*
X133894677Y-68254818D01*
X133950933Y-68276152D01*
X133957827Y-68279009D01*
X134012676Y-68303695D01*
X134022651Y-68305522D01*
X134044263Y-68311547D01*
X134053735Y-68315140D01*
X134113448Y-68322390D01*
X134120792Y-68323507D01*
X134180001Y-68334358D01*
X134236709Y-68330927D01*
X134240041Y-68330726D01*
X134247528Y-68330500D01*
X134831770Y-68330500D01*
X134870929Y-68336846D01*
X134906080Y-68355232D01*
X134997669Y-68423796D01*
X135104971Y-68463817D01*
X135104974Y-68463818D01*
X135154184Y-68497467D01*
X135182004Y-68550193D01*
X135182004Y-68609807D01*
X135154184Y-68662533D01*
X135104974Y-68696182D01*
X134997668Y-68736204D01*
X134882454Y-68822454D01*
X134796204Y-68937668D01*
X134745909Y-69072516D01*
X134739500Y-69132130D01*
X134739500Y-69927869D01*
X134745909Y-69987483D01*
X134796204Y-70122331D01*
X134882454Y-70237546D01*
X134997669Y-70323796D01*
X135108834Y-70365258D01*
X135151070Y-70391696D01*
X135179488Y-70432626D01*
X135189500Y-70481439D01*
X135189500Y-70488561D01*
X135179488Y-70537374D01*
X135151070Y-70578304D01*
X135108834Y-70604741D01*
X135014810Y-70639811D01*
X134997669Y-70646204D01*
X134896906Y-70721635D01*
X134844942Y-70744338D01*
X134833240Y-70746482D01*
X134825843Y-70747608D01*
X134766122Y-70754860D01*
X134756641Y-70758456D01*
X134735036Y-70764479D01*
X134725069Y-70766305D01*
X134670234Y-70790984D01*
X134663318Y-70793848D01*
X134607069Y-70815181D01*
X134598725Y-70820941D01*
X134579183Y-70831963D01*
X134569944Y-70836121D01*
X134522594Y-70873216D01*
X134516566Y-70877652D01*
X134467067Y-70911819D01*
X134427183Y-70956838D01*
X134422051Y-70962290D01*
X134142290Y-71242051D01*
X134136838Y-71247183D01*
X134091816Y-71287070D01*
X134057649Y-71336568D01*
X134053213Y-71342597D01*
X134016121Y-71389942D01*
X134011961Y-71399186D01*
X134000941Y-71418725D01*
X133995182Y-71427069D01*
X133973853Y-71483305D01*
X133970989Y-71490219D01*
X133946303Y-71545070D01*
X133944475Y-71555047D01*
X133938454Y-71576648D01*
X133934859Y-71586128D01*
X133927609Y-71645827D01*
X133926483Y-71653226D01*
X133915641Y-71712391D01*
X133919274Y-71772434D01*
X133919500Y-71779921D01*
X133919500Y-74112971D01*
X133919274Y-74120458D01*
X133915641Y-74180499D01*
X133926483Y-74239663D01*
X133927610Y-74247064D01*
X133934860Y-74306765D01*
X133938450Y-74316231D01*
X133944475Y-74337844D01*
X133946303Y-74347821D01*
X133970991Y-74402675D01*
X133973856Y-74409593D01*
X133991216Y-74455365D01*
X133995182Y-74465822D01*
X134000941Y-74474165D01*
X134011961Y-74493705D01*
X134016120Y-74502946D01*
X134016121Y-74502947D01*
X134016122Y-74502949D01*
X134040296Y-74533805D01*
X134053216Y-74550296D01*
X134057636Y-74556302D01*
X134091817Y-74605821D01*
X134091818Y-74605822D01*
X134091819Y-74605823D01*
X134136830Y-74645698D01*
X134142285Y-74650833D01*
X134449919Y-74958467D01*
X134455053Y-74963920D01*
X134494946Y-75008950D01*
X134544408Y-75043091D01*
X134544452Y-75043121D01*
X134550478Y-75047555D01*
X134597818Y-75084644D01*
X134607053Y-75088800D01*
X134626601Y-75099825D01*
X134634945Y-75105585D01*
X134691197Y-75126918D01*
X134698103Y-75129779D01*
X134752943Y-75154461D01*
X134762905Y-75156286D01*
X134784525Y-75162313D01*
X134794000Y-75165906D01*
X134794003Y-75165907D01*
X134853731Y-75173159D01*
X134861076Y-75174276D01*
X134920269Y-75185124D01*
X134980296Y-75181493D01*
X134987784Y-75181267D01*
X140032532Y-75181267D01*
X140040019Y-75181493D01*
X140043159Y-75181682D01*
X140100059Y-75185125D01*
X140159235Y-75174280D01*
X140166634Y-75173154D01*
X140226325Y-75165907D01*
X140235788Y-75162317D01*
X140257411Y-75156289D01*
X140267385Y-75154462D01*
X140322261Y-75129763D01*
X140329126Y-75126919D01*
X140385383Y-75105585D01*
X140393723Y-75099827D01*
X140413272Y-75088802D01*
X140422510Y-75084645D01*
X140469866Y-75047542D01*
X140475876Y-75043121D01*
X140525382Y-75008950D01*
X140565276Y-74963917D01*
X140570377Y-74958498D01*
X140961827Y-74567048D01*
X141022068Y-74533805D01*
X141090759Y-74537794D01*
X141146749Y-74577790D01*
X141172796Y-74641477D01*
X141174409Y-74656484D01*
X141197700Y-74718930D01*
X141224704Y-74791331D01*
X141254026Y-74830500D01*
X141273195Y-74856106D01*
X141295094Y-74904059D01*
X141295094Y-74956775D01*
X141273195Y-75004728D01*
X141225147Y-75068911D01*
X141174902Y-75203624D01*
X141168500Y-75263176D01*
X141168500Y-75315000D01*
X142366000Y-75315000D01*
X142428000Y-75331613D01*
X142473387Y-75377000D01*
X142490000Y-75439000D01*
X142490000Y-76319000D01*
X142859324Y-76319000D01*
X142918875Y-76312597D01*
X143053589Y-76262352D01*
X143168689Y-76176188D01*
X143221233Y-76105999D01*
X143268989Y-76067515D01*
X143329346Y-76056626D01*
X143387540Y-76075995D01*
X143429332Y-76120883D01*
X143444500Y-76180310D01*
X143444500Y-81918561D01*
X143434488Y-81967374D01*
X143406070Y-82008304D01*
X143363834Y-82034741D01*
X143252668Y-82076204D01*
X143252669Y-82076204D01*
X143161081Y-82144767D01*
X143125929Y-82163154D01*
X143086770Y-82169500D01*
X142028230Y-82169500D01*
X141989071Y-82163154D01*
X141953919Y-82144767D01*
X141862331Y-82076204D01*
X141727483Y-82025909D01*
X141667873Y-82019500D01*
X141667869Y-82019500D01*
X140272130Y-82019500D01*
X140212515Y-82025909D01*
X140077669Y-82076204D01*
X139962454Y-82162454D01*
X139876204Y-82277668D01*
X139825909Y-82412516D01*
X139819500Y-82472130D01*
X139819500Y-83267869D01*
X139825909Y-83327483D01*
X139876204Y-83462331D01*
X139962454Y-83577546D01*
X140077669Y-83663796D01*
X140184971Y-83703817D01*
X140184974Y-83703818D01*
X140234184Y-83737467D01*
X140262004Y-83790193D01*
X140262004Y-83849807D01*
X140234184Y-83902533D01*
X140184974Y-83936181D01*
X140156324Y-83946867D01*
X140077668Y-83976204D01*
X139962454Y-84062454D01*
X139876204Y-84177668D01*
X139825909Y-84312516D01*
X139819500Y-84372130D01*
X139819500Y-85167869D01*
X139825897Y-85227375D01*
X139825909Y-85227483D01*
X139876204Y-85362331D01*
X139962454Y-85477546D01*
X140077669Y-85563796D01*
X140188834Y-85605258D01*
X140231070Y-85631696D01*
X140259488Y-85672626D01*
X140269500Y-85721439D01*
X140269500Y-88990501D01*
X140252887Y-89052501D01*
X140207500Y-89097888D01*
X140145500Y-89114501D01*
X138422128Y-89114501D01*
X138392322Y-89117705D01*
X138362515Y-89120909D01*
X138227669Y-89171204D01*
X138112454Y-89257454D01*
X138026204Y-89372668D01*
X137975909Y-89507516D01*
X137969500Y-89567130D01*
X137969500Y-99662869D01*
X137975897Y-99722375D01*
X137975909Y-99722483D01*
X138026204Y-99857331D01*
X138112454Y-99972546D01*
X138227669Y-100058796D01*
X138362517Y-100109091D01*
X138422127Y-100115500D01*
X143517872Y-100115499D01*
X143577483Y-100109091D01*
X143712331Y-100058796D01*
X143827546Y-99972546D01*
X143913796Y-99857331D01*
X143964091Y-99722483D01*
X143970500Y-99662873D01*
X143970499Y-89567128D01*
X143964091Y-89507517D01*
X143913796Y-89372669D01*
X143827546Y-89257454D01*
X143712331Y-89171204D01*
X143577483Y-89120909D01*
X143517873Y-89114500D01*
X143517869Y-89114500D01*
X141794500Y-89114500D01*
X141732500Y-89097887D01*
X141687113Y-89052500D01*
X141670500Y-88990500D01*
X141670500Y-85721439D01*
X141680512Y-85672626D01*
X141708930Y-85631696D01*
X141751165Y-85605258D01*
X141862331Y-85563796D01*
X141977546Y-85477546D01*
X142063796Y-85362331D01*
X142114091Y-85227483D01*
X142120500Y-85167873D01*
X142120500Y-85020000D01*
X142995000Y-85020000D01*
X142995000Y-85167824D01*
X143001402Y-85227375D01*
X143051647Y-85362089D01*
X143137811Y-85477188D01*
X143252910Y-85563352D01*
X143387624Y-85613597D01*
X143447176Y-85620000D01*
X143895000Y-85620000D01*
X143895000Y-85020000D01*
X144395000Y-85020000D01*
X144395000Y-85620000D01*
X144842824Y-85620000D01*
X144902375Y-85613597D01*
X145037089Y-85563352D01*
X145152188Y-85477188D01*
X145238352Y-85362089D01*
X145288597Y-85227375D01*
X145295000Y-85167824D01*
X145295000Y-85020000D01*
X144395000Y-85020000D01*
X143895000Y-85020000D01*
X142995000Y-85020000D01*
X142120500Y-85020000D01*
X142120499Y-84372128D01*
X142114091Y-84312517D01*
X142063796Y-84177669D01*
X141977546Y-84062454D01*
X141862331Y-83976204D01*
X141816016Y-83958929D01*
X141755025Y-83936181D01*
X141705815Y-83902531D01*
X141677995Y-83849806D01*
X141677995Y-83790191D01*
X141705816Y-83737466D01*
X141755024Y-83703818D01*
X141862331Y-83663796D01*
X141953919Y-83595232D01*
X141989071Y-83576846D01*
X142028230Y-83570500D01*
X143086770Y-83570500D01*
X143125929Y-83576846D01*
X143161080Y-83595232D01*
X143252669Y-83663796D01*
X143359971Y-83703817D01*
X143360687Y-83704084D01*
X143409898Y-83737733D01*
X143437718Y-83790458D01*
X143437718Y-83850073D01*
X143409898Y-83902798D01*
X143360688Y-83936447D01*
X143252913Y-83976645D01*
X143137811Y-84062811D01*
X143051647Y-84177910D01*
X143001402Y-84312624D01*
X142995000Y-84372176D01*
X142995000Y-84520000D01*
X145295000Y-84520000D01*
X145295000Y-84372176D01*
X145288597Y-84312624D01*
X145238352Y-84177910D01*
X145152188Y-84062811D01*
X145037088Y-83976647D01*
X144929310Y-83936448D01*
X144880100Y-83902798D01*
X144852280Y-83850073D01*
X144852280Y-83790458D01*
X144880101Y-83737733D01*
X144929308Y-83704085D01*
X145037331Y-83663796D01*
X145152546Y-83577546D01*
X145238796Y-83462331D01*
X145289091Y-83327483D01*
X145295500Y-83267873D01*
X145295499Y-82472128D01*
X145289091Y-82412517D01*
X145238796Y-82277669D01*
X145152546Y-82162454D01*
X145037331Y-82076204D01*
X144926165Y-82034741D01*
X144883930Y-82008304D01*
X144855512Y-81967374D01*
X144845500Y-81918561D01*
X144845500Y-78393106D01*
X144860527Y-78333938D01*
X144901965Y-78289111D01*
X144959771Y-78269488D01*
X145019935Y-78279826D01*
X145040790Y-78289111D01*
X145135197Y-78331144D01*
X145135198Y-78331144D01*
X145135200Y-78331145D01*
X145290126Y-78364075D01*
X145323513Y-78376391D01*
X145352027Y-78397684D01*
X148488181Y-81533838D01*
X148515061Y-81574066D01*
X148524500Y-81621519D01*
X148524500Y-88990501D01*
X148507887Y-89052501D01*
X148462500Y-89097888D01*
X148400500Y-89114501D01*
X146677128Y-89114501D01*
X146647322Y-89117705D01*
X146617515Y-89120909D01*
X146482669Y-89171204D01*
X146367454Y-89257454D01*
X146281204Y-89372668D01*
X146230909Y-89507516D01*
X146224500Y-89567130D01*
X146224500Y-99662869D01*
X146230897Y-99722375D01*
X146230909Y-99722483D01*
X146281204Y-99857331D01*
X146367454Y-99972546D01*
X146482669Y-100058796D01*
X146617517Y-100109091D01*
X146677127Y-100115500D01*
X151772872Y-100115499D01*
X151832483Y-100109091D01*
X151967331Y-100058796D01*
X152082546Y-99972546D01*
X152168796Y-99857331D01*
X152219091Y-99722483D01*
X152225500Y-99662873D01*
X152225499Y-89567128D01*
X152219091Y-89507517D01*
X152168796Y-89372669D01*
X152082546Y-89257454D01*
X151967331Y-89171204D01*
X151832483Y-89120909D01*
X151772873Y-89114500D01*
X151772869Y-89114500D01*
X150049500Y-89114500D01*
X149987500Y-89097887D01*
X149942113Y-89052500D01*
X149925500Y-88990500D01*
X149925500Y-82000519D01*
X149939015Y-81944224D01*
X149976615Y-81900201D01*
X150030102Y-81878046D01*
X150087818Y-81882588D01*
X150137181Y-81912838D01*
X157127162Y-88902819D01*
X157157412Y-88952182D01*
X157161954Y-89009898D01*
X157139799Y-89063385D01*
X157095776Y-89100985D01*
X157039481Y-89114500D01*
X155567130Y-89114500D01*
X155507515Y-89120909D01*
X155372669Y-89171204D01*
X155257454Y-89257454D01*
X155171204Y-89372668D01*
X155120909Y-89507516D01*
X155114500Y-89567130D01*
X155114500Y-99662869D01*
X155120897Y-99722375D01*
X155120909Y-99722483D01*
X155171204Y-99857331D01*
X155257454Y-99972546D01*
X155372669Y-100058796D01*
X155507517Y-100109091D01*
X155567127Y-100115500D01*
X160662872Y-100115499D01*
X160722483Y-100109091D01*
X160857331Y-100058796D01*
X160972546Y-99972546D01*
X161058796Y-99857331D01*
X161109091Y-99722483D01*
X161115500Y-99662873D01*
X161115499Y-94865000D01*
X163370000Y-94865000D01*
X163370000Y-99662824D01*
X163376402Y-99722375D01*
X163426647Y-99857089D01*
X163512811Y-99972188D01*
X163627910Y-100058352D01*
X163762624Y-100108597D01*
X163822176Y-100115000D01*
X166120000Y-100115000D01*
X166120000Y-94865000D01*
X166620000Y-94865000D01*
X166620000Y-100115000D01*
X168917824Y-100115000D01*
X168977375Y-100108597D01*
X169112089Y-100058352D01*
X169227188Y-99972188D01*
X169313352Y-99857089D01*
X169363597Y-99722375D01*
X169370000Y-99662824D01*
X169370000Y-94865000D01*
X166620000Y-94865000D01*
X166120000Y-94865000D01*
X163370000Y-94865000D01*
X161115499Y-94865000D01*
X161115499Y-94365000D01*
X163370000Y-94365000D01*
X166120000Y-94365000D01*
X166120000Y-89115000D01*
X166620000Y-89115000D01*
X166620000Y-94365000D01*
X169370000Y-94365000D01*
X169370000Y-89567176D01*
X169363597Y-89507624D01*
X169313352Y-89372910D01*
X169227188Y-89257811D01*
X169112089Y-89171647D01*
X168977375Y-89121402D01*
X168917824Y-89115000D01*
X166620000Y-89115000D01*
X166120000Y-89115000D01*
X163822176Y-89115000D01*
X163762624Y-89121402D01*
X163627910Y-89171647D01*
X163512811Y-89257811D01*
X163426647Y-89372910D01*
X163376402Y-89507624D01*
X163370000Y-89567176D01*
X163370000Y-94365000D01*
X161115499Y-94365000D01*
X161115499Y-89567128D01*
X161109091Y-89507517D01*
X161058796Y-89372669D01*
X160972546Y-89257454D01*
X160857331Y-89171204D01*
X160722483Y-89120909D01*
X160662873Y-89114500D01*
X160662869Y-89114500D01*
X158939500Y-89114500D01*
X158877500Y-89097887D01*
X158832113Y-89052500D01*
X158815500Y-88990500D01*
X158815500Y-88924921D01*
X158815726Y-88917434D01*
X158816610Y-88902819D01*
X158819358Y-88857394D01*
X158808507Y-88798185D01*
X158807390Y-88790840D01*
X158800140Y-88731128D01*
X158796546Y-88721651D01*
X158790521Y-88700034D01*
X158788695Y-88690068D01*
X158764009Y-88635218D01*
X158761151Y-88628322D01*
X158739818Y-88572070D01*
X158734061Y-88563730D01*
X158723035Y-88544181D01*
X158718877Y-88534941D01*
X158681785Y-88487597D01*
X158677355Y-88481577D01*
X158643183Y-88432071D01*
X158598153Y-88392178D01*
X158592715Y-88387058D01*
X147611503Y-77405846D01*
X147587263Y-77371548D01*
X147575864Y-77331130D01*
X147570674Y-77281744D01*
X147512179Y-77101716D01*
X147512179Y-77101715D01*
X147417533Y-76937783D01*
X147290870Y-76797110D01*
X147137730Y-76685848D01*
X146964802Y-76608855D01*
X146779648Y-76569500D01*
X146779646Y-76569500D01*
X146590354Y-76569500D01*
X146590352Y-76569500D01*
X146405197Y-76608855D01*
X146232269Y-76685848D01*
X146122885Y-76765321D01*
X146075781Y-76786293D01*
X146024219Y-76786293D01*
X145977115Y-76765321D01*
X145867730Y-76685848D01*
X145694802Y-76608855D01*
X145509648Y-76569500D01*
X145509646Y-76569500D01*
X145320354Y-76569500D01*
X145320352Y-76569500D01*
X145135199Y-76608854D01*
X145019935Y-76660174D01*
X144959771Y-76670512D01*
X144901965Y-76650889D01*
X144860527Y-76606062D01*
X144845500Y-76546894D01*
X144845500Y-76389500D01*
X144862113Y-76327500D01*
X144907500Y-76282113D01*
X144969500Y-76265500D01*
X147761047Y-76265500D01*
X147804380Y-76273318D01*
X147909692Y-76312597D01*
X147911017Y-76313091D01*
X147970627Y-76319500D01*
X149209372Y-76319499D01*
X149268983Y-76313091D01*
X149403831Y-76262796D01*
X149519046Y-76176546D01*
X149605296Y-76061331D01*
X149645275Y-75954139D01*
X149680253Y-75903763D01*
X149735097Y-75876309D01*
X149796391Y-75878498D01*
X149849137Y-75909794D01*
X150297051Y-76357707D01*
X150302171Y-76363145D01*
X150342071Y-76408183D01*
X150391574Y-76442352D01*
X150397603Y-76446788D01*
X150444944Y-76483878D01*
X150454183Y-76488036D01*
X150473719Y-76499053D01*
X150482070Y-76504818D01*
X150538326Y-76526152D01*
X150545220Y-76529009D01*
X150600069Y-76553695D01*
X150610044Y-76555522D01*
X150631656Y-76561547D01*
X150641128Y-76565140D01*
X150700843Y-76572390D01*
X150708202Y-76573510D01*
X150719952Y-76575663D01*
X150771903Y-76598362D01*
X150872669Y-76673796D01*
X151007517Y-76724091D01*
X151067127Y-76730500D01*
X152462872Y-76730499D01*
X152522483Y-76724091D01*
X152657331Y-76673796D01*
X152772546Y-76587546D01*
X152858796Y-76472331D01*
X152909091Y-76337483D01*
X152915500Y-76277873D01*
X152915499Y-75482128D01*
X152909091Y-75422517D01*
X152858796Y-75287669D01*
X152772546Y-75172454D01*
X152657331Y-75086204D01*
X152610966Y-75068911D01*
X152550025Y-75046181D01*
X152500815Y-75012531D01*
X152472995Y-74959806D01*
X152472995Y-74900191D01*
X152500816Y-74847466D01*
X152550024Y-74813818D01*
X152657331Y-74773796D01*
X152748919Y-74705232D01*
X152784071Y-74686846D01*
X152823230Y-74680500D01*
X153117723Y-74680500D01*
X153166535Y-74690512D01*
X153207465Y-74718930D01*
X153233904Y-74761165D01*
X153236204Y-74767331D01*
X153322454Y-74882546D01*
X153437669Y-74968796D01*
X153572517Y-75019091D01*
X153632127Y-75025500D01*
X154977872Y-75025499D01*
X155037483Y-75019091D01*
X155172331Y-74968796D01*
X155287546Y-74882546D01*
X155373796Y-74767331D01*
X155424091Y-74632483D01*
X155430500Y-74572873D01*
X155430499Y-73477128D01*
X155424091Y-73417517D01*
X155373796Y-73282669D01*
X155287546Y-73167454D01*
X155229853Y-73124265D01*
X155193282Y-73080504D01*
X155180166Y-73025000D01*
X155193282Y-72969496D01*
X155229853Y-72925734D01*
X155287546Y-72882546D01*
X155367914Y-72775187D01*
X155411676Y-72738616D01*
X155467180Y-72725500D01*
X155732680Y-72725500D01*
X155788185Y-72738616D01*
X155831946Y-72775188D01*
X155837454Y-72782546D01*
X155952669Y-72868796D01*
X156059971Y-72908817D01*
X156059974Y-72908818D01*
X156109184Y-72942467D01*
X156137004Y-72995193D01*
X156137004Y-73054807D01*
X156109184Y-73107533D01*
X156059974Y-73141182D01*
X155952668Y-73181204D01*
X155837454Y-73267454D01*
X155751204Y-73382668D01*
X155700909Y-73517516D01*
X155694500Y-73577130D01*
X155694500Y-74372869D01*
X155700909Y-74432484D01*
X155716453Y-74474158D01*
X155751204Y-74567331D01*
X155837454Y-74682546D01*
X155952669Y-74768796D01*
X156087517Y-74819091D01*
X156147127Y-74825500D01*
X157542872Y-74825499D01*
X157602483Y-74819091D01*
X157737331Y-74768796D01*
X157828919Y-74700232D01*
X157864071Y-74681846D01*
X157903230Y-74675500D01*
X161072873Y-74675500D01*
X161080360Y-74675726D01*
X161083500Y-74675915D01*
X161140400Y-74679358D01*
X161199576Y-74668513D01*
X161206975Y-74667387D01*
X161266666Y-74660140D01*
X161276129Y-74656550D01*
X161297752Y-74650522D01*
X161307726Y-74648695D01*
X161362602Y-74623996D01*
X161369467Y-74621152D01*
X161425724Y-74599818D01*
X161434064Y-74594060D01*
X161453613Y-74583035D01*
X161462851Y-74578878D01*
X161510207Y-74541775D01*
X161516214Y-74537355D01*
X161565723Y-74503183D01*
X161605617Y-74458150D01*
X161610718Y-74452731D01*
X166455586Y-69607865D01*
X166485768Y-69577683D01*
X166503968Y-69547576D01*
X166512478Y-69535247D01*
X166534173Y-69507556D01*
X166534172Y-69507556D01*
X166534174Y-69507555D01*
X166548615Y-69475465D01*
X166555563Y-69462226D01*
X166573774Y-69432104D01*
X166584238Y-69398518D01*
X166589549Y-69384516D01*
X166603991Y-69352429D01*
X166610335Y-69317807D01*
X166613911Y-69303294D01*
X166624382Y-69269694D01*
X166626505Y-69234576D01*
X166628309Y-69219717D01*
X166634654Y-69185104D01*
X166632529Y-69149985D01*
X166632529Y-69135008D01*
X166632703Y-69132128D01*
X166634654Y-69099892D01*
X166628310Y-69065279D01*
X166626505Y-69050410D01*
X166625726Y-69037519D01*
X166625500Y-69030039D01*
X166625500Y-64523479D01*
X166644506Y-64457507D01*
X166695699Y-64411759D01*
X166785973Y-64368285D01*
X166802704Y-64360228D01*
X167019479Y-64212433D01*
X167019482Y-64212429D01*
X167019485Y-64212428D01*
X167104792Y-64133273D01*
X167211805Y-64033981D01*
X167375386Y-63828857D01*
X167506568Y-63601643D01*
X167602420Y-63357416D01*
X167660802Y-63101630D01*
X167680408Y-62840000D01*
X167660802Y-62578370D01*
X167602420Y-62322584D01*
X167506568Y-62078357D01*
X167375386Y-61851143D01*
X167211805Y-61646019D01*
X167175050Y-61611915D01*
X167019485Y-61467571D01*
X166961976Y-61428362D01*
X166802704Y-61319772D01*
X166802701Y-61319771D01*
X166802699Y-61319769D01*
X166695699Y-61268241D01*
X166644506Y-61222493D01*
X166625500Y-61156521D01*
X166625500Y-56293479D01*
X166644506Y-56227507D01*
X166695699Y-56181759D01*
X166785973Y-56138285D01*
X166802704Y-56130228D01*
X167019479Y-55982433D01*
X167019482Y-55982429D01*
X167019485Y-55982428D01*
X167104792Y-55903273D01*
X167211805Y-55803981D01*
X167375386Y-55598857D01*
X167506568Y-55371643D01*
X167602420Y-55127416D01*
X167660802Y-54871630D01*
X167680408Y-54610000D01*
X167660802Y-54348370D01*
X167602420Y-54092584D01*
X167506568Y-53848357D01*
X167375386Y-53621143D01*
X167211805Y-53416019D01*
X167175050Y-53381915D01*
X167019485Y-53237571D01*
X166961980Y-53198365D01*
X166802704Y-53089772D01*
X166566323Y-52975937D01*
X166315615Y-52898604D01*
X166056182Y-52859500D01*
X165793818Y-52859500D01*
X165534385Y-52898604D01*
X165283677Y-52975937D01*
X165047296Y-53089772D01*
X164991357Y-53127910D01*
X164830518Y-53237568D01*
X164644341Y-53410316D01*
X164590598Y-53439583D01*
X164529402Y-53439583D01*
X164475659Y-53410316D01*
X164289481Y-53237568D01*
X164231980Y-53198365D01*
X164072704Y-53089772D01*
X163836323Y-52975937D01*
X163585615Y-52898604D01*
X163326182Y-52859500D01*
X163063818Y-52859500D01*
X162804385Y-52898604D01*
X162553677Y-52975937D01*
X162317296Y-53089772D01*
X162247922Y-53137070D01*
X162100514Y-53237571D01*
X161908198Y-53416015D01*
X161744613Y-53621143D01*
X161613432Y-53848357D01*
X161567284Y-53965938D01*
X161533440Y-54014016D01*
X161481253Y-54041100D01*
X161422458Y-54041100D01*
X161370271Y-54014016D01*
X161336429Y-53965938D01*
X161281743Y-53826602D01*
X161146815Y-53592898D01*
X160978561Y-53381915D01*
X160978560Y-53381914D01*
X160780743Y-53198366D01*
X160723205Y-53159137D01*
X160557775Y-53046349D01*
X160314641Y-52929262D01*
X160215250Y-52898604D01*
X160056771Y-52849719D01*
X159789929Y-52809500D01*
X159520071Y-52809500D01*
X159253228Y-52849719D01*
X158995359Y-52929262D01*
X158752228Y-53046347D01*
X158529257Y-53198366D01*
X158331439Y-53381915D01*
X158163184Y-53592899D01*
X158028257Y-53826601D01*
X157929666Y-54077804D01*
X157869616Y-54340899D01*
X157849450Y-54610000D01*
X157869616Y-54879100D01*
X157869617Y-54879103D01*
X157929666Y-55142195D01*
X158028257Y-55393398D01*
X158163185Y-55627102D01*
X158331439Y-55838085D01*
X158487004Y-55982428D01*
X158529261Y-56021637D01*
X158700352Y-56138285D01*
X158740130Y-56182797D01*
X158754500Y-56240738D01*
X158754500Y-61209262D01*
X158740130Y-61267203D01*
X158700352Y-61311715D01*
X158529261Y-61428362D01*
X158331439Y-61611915D01*
X158163184Y-61822899D01*
X158028257Y-62056601D01*
X157929666Y-62307804D01*
X157869616Y-62570899D01*
X157849450Y-62840000D01*
X157869616Y-63109100D01*
X157869617Y-63109103D01*
X157929666Y-63372195D01*
X158028257Y-63623398D01*
X158163185Y-63857102D01*
X158331439Y-64068085D01*
X158487004Y-64212428D01*
X158529261Y-64251637D01*
X158700352Y-64368285D01*
X158740130Y-64412797D01*
X158754500Y-64470738D01*
X158754500Y-66055501D01*
X158737887Y-66117501D01*
X158692500Y-66162888D01*
X158630500Y-66179501D01*
X158487128Y-66179501D01*
X158457322Y-66182704D01*
X158427515Y-66185909D01*
X158292669Y-66236204D01*
X158177451Y-66322456D01*
X158134515Y-66379811D01*
X158090753Y-66416384D01*
X158035249Y-66429500D01*
X157294844Y-66429500D01*
X157287357Y-66429274D01*
X157227314Y-66425641D01*
X157168150Y-66436483D01*
X157160751Y-66437610D01*
X157101047Y-66444860D01*
X157091574Y-66448453D01*
X157069970Y-66454476D01*
X157059992Y-66456305D01*
X157005148Y-66480987D01*
X156998233Y-66483851D01*
X156941993Y-66505181D01*
X156933646Y-66510943D01*
X156914110Y-66521961D01*
X156904867Y-66526121D01*
X156857531Y-66563205D01*
X156851505Y-66567639D01*
X156801995Y-66601816D01*
X156762107Y-66646838D01*
X156756982Y-66652283D01*
X156516082Y-66893183D01*
X156475857Y-66920061D01*
X156428404Y-66929500D01*
X155363230Y-66929500D01*
X155324071Y-66923154D01*
X155288919Y-66904767D01*
X155197331Y-66836204D01*
X155062483Y-66785909D01*
X155062482Y-66785908D01*
X155002873Y-66779500D01*
X155002869Y-66779500D01*
X153607130Y-66779500D01*
X153547515Y-66785909D01*
X153412669Y-66836204D01*
X153297454Y-66922454D01*
X153211204Y-67037668D01*
X153160909Y-67172516D01*
X153154500Y-67232130D01*
X153154500Y-68027869D01*
X153159469Y-68074090D01*
X153160909Y-68087483D01*
X153211204Y-68222331D01*
X153297454Y-68337546D01*
X153412669Y-68423796D01*
X153519971Y-68463817D01*
X153519974Y-68463818D01*
X153569184Y-68497467D01*
X153597004Y-68550193D01*
X153597004Y-68609807D01*
X153569184Y-68662533D01*
X153519974Y-68696182D01*
X153412668Y-68736204D01*
X153339045Y-68791318D01*
X153329851Y-68798202D01*
X153321081Y-68804767D01*
X153285929Y-68823154D01*
X153246770Y-68829500D01*
X152744910Y-68829500D01*
X152737423Y-68829274D01*
X152677391Y-68825642D01*
X152618242Y-68836481D01*
X152610843Y-68837608D01*
X152551122Y-68844860D01*
X152541641Y-68848456D01*
X152520036Y-68854479D01*
X152510067Y-68856306D01*
X152455228Y-68880986D01*
X152448313Y-68883850D01*
X152392067Y-68905182D01*
X152383720Y-68910943D01*
X152364192Y-68921957D01*
X152354948Y-68926118D01*
X152307597Y-68963214D01*
X152301568Y-68967649D01*
X152252070Y-69001816D01*
X152212183Y-69046838D01*
X152207051Y-69052290D01*
X150432027Y-70827315D01*
X150403514Y-70848607D01*
X150370127Y-70860924D01*
X150215197Y-70893855D01*
X150042269Y-70970848D01*
X149889129Y-71082111D01*
X149762956Y-71222239D01*
X149718668Y-71253657D01*
X149665202Y-71263139D01*
X149612810Y-71248867D01*
X149571540Y-71213577D01*
X149519046Y-71143454D01*
X149469002Y-71105991D01*
X149403831Y-71057204D01*
X149371164Y-71045020D01*
X149328930Y-71018582D01*
X149300512Y-70977651D01*
X149290500Y-70928839D01*
X149290500Y-70665033D01*
X149307113Y-70603033D01*
X149352500Y-70557646D01*
X149414500Y-70541033D01*
X149425374Y-70541033D01*
X149425376Y-70541033D01*
X149484987Y-70534625D01*
X149619835Y-70484330D01*
X149735050Y-70398080D01*
X149821300Y-70282865D01*
X149871595Y-70148017D01*
X149878004Y-70088407D01*
X149878003Y-68992662D01*
X149871595Y-68933051D01*
X149821300Y-68798203D01*
X149735050Y-68682988D01*
X149735048Y-68682985D01*
X149676942Y-68639487D01*
X149640369Y-68595725D01*
X149627253Y-68540220D01*
X149640369Y-68484716D01*
X149676943Y-68440953D01*
X149734693Y-68397721D01*
X149820856Y-68282623D01*
X149871101Y-68147909D01*
X149877504Y-68088358D01*
X149877504Y-67790534D01*
X147627504Y-67790534D01*
X147627504Y-68088358D01*
X147633906Y-68147909D01*
X147684151Y-68282623D01*
X147770316Y-68397724D01*
X147828064Y-68440954D01*
X147864638Y-68484716D01*
X147877754Y-68540220D01*
X147864639Y-68595724D01*
X147828066Y-68639487D01*
X147769958Y-68682986D01*
X147683708Y-68798202D01*
X147633413Y-68933050D01*
X147627004Y-68992664D01*
X147627004Y-70088403D01*
X147633413Y-70148017D01*
X147683708Y-70282865D01*
X147756797Y-70380499D01*
X147769958Y-70398080D01*
X147839811Y-70450372D01*
X147876384Y-70494135D01*
X147889500Y-70549639D01*
X147889500Y-70831894D01*
X147874473Y-70891062D01*
X147833035Y-70935889D01*
X147775229Y-70955512D01*
X147715065Y-70945174D01*
X147599800Y-70893854D01*
X147414648Y-70854500D01*
X147414646Y-70854500D01*
X147225354Y-70854500D01*
X147225352Y-70854500D01*
X147040197Y-70893855D01*
X146867269Y-70970848D01*
X146714129Y-71082110D01*
X146587466Y-71222783D01*
X146492820Y-71386715D01*
X146434326Y-71566742D01*
X146422724Y-71677128D01*
X146414540Y-71755000D01*
X146423250Y-71837869D01*
X146434326Y-71943257D01*
X146492820Y-72123284D01*
X146587466Y-72287216D01*
X146714128Y-72427887D01*
X146719647Y-72431897D01*
X146754952Y-72471625D01*
X146770381Y-72522486D01*
X146763099Y-72575134D01*
X146734444Y-72619897D01*
X146207290Y-73147051D01*
X146201838Y-73152183D01*
X146156815Y-73192071D01*
X146152044Y-73198983D01*
X146107619Y-73238336D01*
X146049995Y-73252536D01*
X145992371Y-73238331D01*
X145947949Y-73198976D01*
X145943183Y-73192071D01*
X145898153Y-73152178D01*
X145892715Y-73147058D01*
X144022940Y-71277283D01*
X144017822Y-71271847D01*
X143977929Y-71226817D01*
X143974572Y-71224500D01*
X143928436Y-71192654D01*
X143922405Y-71188216D01*
X143875054Y-71151120D01*
X143865813Y-71146961D01*
X143846273Y-71135941D01*
X143837930Y-71130182D01*
X143837927Y-71130181D01*
X143837926Y-71130180D01*
X143781701Y-71108856D01*
X143774783Y-71105991D01*
X143719929Y-71081303D01*
X143709952Y-71079475D01*
X143688339Y-71073450D01*
X143678873Y-71069860D01*
X143619172Y-71062610D01*
X143611771Y-71061483D01*
X143552607Y-71050641D01*
X143492566Y-71054274D01*
X143485079Y-71054500D01*
X143068953Y-71054500D01*
X143025620Y-71046682D01*
X142918985Y-71006909D01*
X142899112Y-71004772D01*
X142859373Y-71000500D01*
X142859369Y-71000500D01*
X141620630Y-71000500D01*
X141561015Y-71006909D01*
X141454380Y-71046682D01*
X141411047Y-71054500D01*
X141218853Y-71054500D01*
X141171400Y-71045061D01*
X141131172Y-71018181D01*
X141025274Y-70912283D01*
X141020156Y-70906847D01*
X140980263Y-70861817D01*
X140978969Y-70860924D01*
X140930770Y-70827654D01*
X140924739Y-70823216D01*
X140896043Y-70800735D01*
X140877391Y-70786122D01*
X140877389Y-70786121D01*
X140877388Y-70786120D01*
X140868147Y-70781961D01*
X140848607Y-70770941D01*
X140840264Y-70765182D01*
X140840261Y-70765181D01*
X140840260Y-70765180D01*
X140784035Y-70743856D01*
X140777117Y-70740991D01*
X140722263Y-70716303D01*
X140712286Y-70714475D01*
X140690673Y-70708450D01*
X140681207Y-70704860D01*
X140621506Y-70697610D01*
X140614105Y-70696483D01*
X140554941Y-70685641D01*
X140494900Y-70689274D01*
X140487413Y-70689500D01*
X140227180Y-70689500D01*
X140171676Y-70676384D01*
X140127913Y-70639811D01*
X140047546Y-70532454D01*
X140047544Y-70532453D01*
X140047544Y-70532452D01*
X139995676Y-70493624D01*
X139959102Y-70449861D01*
X139945986Y-70394357D01*
X139959102Y-70338852D01*
X139995671Y-70295094D01*
X140072546Y-70237546D01*
X140158796Y-70122331D01*
X140209091Y-69987483D01*
X140215500Y-69927873D01*
X140215499Y-69132128D01*
X140209091Y-69072517D01*
X140158796Y-68937669D01*
X140072546Y-68822454D01*
X139957331Y-68736204D01*
X139911016Y-68718929D01*
X139850025Y-68696181D01*
X139800815Y-68662531D01*
X139772995Y-68609806D01*
X139772995Y-68550191D01*
X139800816Y-68497466D01*
X139850024Y-68463818D01*
X139957331Y-68423796D01*
X140072546Y-68337546D01*
X140158796Y-68222331D01*
X140209091Y-68087483D01*
X140215500Y-68027873D01*
X140215499Y-67290534D01*
X147627504Y-67290534D01*
X148502504Y-67290534D01*
X148502504Y-66540534D01*
X149002504Y-66540534D01*
X149002504Y-67290534D01*
X149877504Y-67290534D01*
X149877504Y-66992710D01*
X149871101Y-66933158D01*
X149820856Y-66798444D01*
X149734692Y-66683345D01*
X149619593Y-66597181D01*
X149484879Y-66546936D01*
X149425328Y-66540534D01*
X149002504Y-66540534D01*
X148502504Y-66540534D01*
X148079680Y-66540534D01*
X148020128Y-66546936D01*
X147885414Y-66597181D01*
X147770315Y-66683345D01*
X147684151Y-66798444D01*
X147633906Y-66933158D01*
X147627504Y-66992710D01*
X147627504Y-67290534D01*
X140215499Y-67290534D01*
X140215499Y-67232128D01*
X140209091Y-67172517D01*
X140158796Y-67037669D01*
X140072546Y-66922454D01*
X139957331Y-66836204D01*
X139846165Y-66794741D01*
X139803930Y-66768304D01*
X139775512Y-66727374D01*
X139765500Y-66678561D01*
X139765500Y-66064921D01*
X139765726Y-66057434D01*
X139765927Y-66054102D01*
X139769358Y-65997394D01*
X139758507Y-65938185D01*
X139757390Y-65930841D01*
X139750140Y-65871128D01*
X139746547Y-65861656D01*
X139740522Y-65840044D01*
X139738695Y-65830069D01*
X139714009Y-65775220D01*
X139711152Y-65768326D01*
X139689818Y-65712070D01*
X139689816Y-65712068D01*
X139689816Y-65712066D01*
X139684062Y-65703731D01*
X139673033Y-65684177D01*
X139671519Y-65680813D01*
X139668878Y-65674944D01*
X139631780Y-65627591D01*
X139627352Y-65621573D01*
X139593184Y-65572072D01*
X139593183Y-65572071D01*
X139548153Y-65532178D01*
X139542715Y-65527058D01*
X139086819Y-65071162D01*
X139059939Y-65030934D01*
X139050500Y-64983481D01*
X139050500Y-64523479D01*
X139069506Y-64457507D01*
X139120699Y-64411759D01*
X139210973Y-64368285D01*
X139227704Y-64360228D01*
X139444479Y-64212433D01*
X139444482Y-64212429D01*
X139444485Y-64212428D01*
X139529792Y-64133273D01*
X139636805Y-64033981D01*
X139800386Y-63828857D01*
X139931568Y-63601643D01*
X140027420Y-63357416D01*
X140085802Y-63101630D01*
X140105408Y-62840000D01*
X150669450Y-62840000D01*
X150689616Y-63109100D01*
X150689617Y-63109103D01*
X150749666Y-63372195D01*
X150848257Y-63623398D01*
X150983185Y-63857102D01*
X151151439Y-64068085D01*
X151349259Y-64251635D01*
X151572226Y-64403651D01*
X151815359Y-64520738D01*
X152073228Y-64600280D01*
X152340071Y-64640500D01*
X152609929Y-64640500D01*
X152876772Y-64600280D01*
X153134641Y-64520738D01*
X153377775Y-64403651D01*
X153600741Y-64251635D01*
X153798561Y-64068085D01*
X153966815Y-63857102D01*
X154101743Y-63623398D01*
X154200334Y-63372195D01*
X154260383Y-63109103D01*
X154280549Y-62840000D01*
X154260383Y-62570897D01*
X154228609Y-62431686D01*
X154225500Y-62404093D01*
X154225500Y-55045907D01*
X154228609Y-55018314D01*
X154232202Y-55002569D01*
X154260383Y-54879103D01*
X154280549Y-54610000D01*
X154260383Y-54340897D01*
X154200334Y-54077805D01*
X154101743Y-53826602D01*
X153966815Y-53592898D01*
X153798561Y-53381915D01*
X153798560Y-53381914D01*
X153600743Y-53198366D01*
X153543205Y-53159137D01*
X153377775Y-53046349D01*
X153134641Y-52929262D01*
X153035250Y-52898604D01*
X152876771Y-52849719D01*
X152609929Y-52809500D01*
X152340071Y-52809500D01*
X152073228Y-52849719D01*
X151815359Y-52929262D01*
X151572228Y-53046347D01*
X151349257Y-53198366D01*
X151151439Y-53381915D01*
X150983184Y-53592899D01*
X150848257Y-53826601D01*
X150749666Y-54077804D01*
X150689616Y-54340899D01*
X150669450Y-54610000D01*
X150689616Y-54879100D01*
X150721391Y-55018314D01*
X150724500Y-55045907D01*
X150724500Y-62404093D01*
X150721391Y-62431686D01*
X150689616Y-62570899D01*
X150669450Y-62840000D01*
X140105408Y-62840000D01*
X140085802Y-62578370D01*
X140027420Y-62322584D01*
X139931568Y-62078357D01*
X139800386Y-61851143D01*
X139636805Y-61646019D01*
X139600050Y-61611915D01*
X139444485Y-61467571D01*
X139386976Y-61428362D01*
X139227704Y-61319772D01*
X139227701Y-61319771D01*
X139227699Y-61319769D01*
X139120699Y-61268241D01*
X139069506Y-61222493D01*
X139050500Y-61156521D01*
X139050500Y-56293479D01*
X139069506Y-56227507D01*
X139120699Y-56181759D01*
X139210973Y-56138285D01*
X139227704Y-56130228D01*
X139444479Y-55982433D01*
X139444482Y-55982429D01*
X139444485Y-55982428D01*
X139529792Y-55903273D01*
X139636805Y-55803981D01*
X139800386Y-55598857D01*
X139931568Y-55371643D01*
X140027420Y-55127416D01*
X140085802Y-54871630D01*
X140105408Y-54610000D01*
X140085802Y-54348370D01*
X140027420Y-54092584D01*
X139931568Y-53848357D01*
X139800386Y-53621143D01*
X139636805Y-53416019D01*
X139600050Y-53381915D01*
X139444485Y-53237571D01*
X139386980Y-53198365D01*
X139227704Y-53089772D01*
X138991323Y-52975937D01*
X138740615Y-52898604D01*
X138481182Y-52859500D01*
X138218818Y-52859500D01*
X137959385Y-52898604D01*
X137708677Y-52975937D01*
X137472296Y-53089772D01*
X137416357Y-53127910D01*
X137255518Y-53237568D01*
X137069341Y-53410316D01*
X137015598Y-53439583D01*
X136954402Y-53439583D01*
X136900659Y-53410316D01*
X136714481Y-53237568D01*
X136656980Y-53198365D01*
X136497704Y-53089772D01*
X136261323Y-52975937D01*
X136010615Y-52898604D01*
X135751182Y-52859500D01*
X135488818Y-52859500D01*
X135229385Y-52898604D01*
X134978677Y-52975937D01*
X134742296Y-53089772D01*
X134672922Y-53137070D01*
X134525514Y-53237571D01*
X134333198Y-53416015D01*
X134169613Y-53621143D01*
X134038432Y-53848357D01*
X133992284Y-53965938D01*
X133958440Y-54014016D01*
X133906253Y-54041100D01*
X133847458Y-54041100D01*
X133795271Y-54014016D01*
X133761429Y-53965938D01*
X133706743Y-53826602D01*
X133571815Y-53592898D01*
X133403561Y-53381915D01*
X133403560Y-53381914D01*
X133205743Y-53198366D01*
X133148205Y-53159137D01*
X132982775Y-53046349D01*
X132739641Y-52929262D01*
X132640250Y-52898604D01*
X132481771Y-52849719D01*
X132214929Y-52809500D01*
X131945071Y-52809500D01*
X131678228Y-52849719D01*
X131420359Y-52929262D01*
X131177228Y-53046347D01*
X130954257Y-53198366D01*
X130756439Y-53381915D01*
X130588184Y-53592899D01*
X130453257Y-53826601D01*
X130354666Y-54077804D01*
X130294616Y-54340899D01*
X130274450Y-54610000D01*
X130294616Y-54879100D01*
X130294617Y-54879103D01*
X130354666Y-55142195D01*
X130453257Y-55393398D01*
X130588185Y-55627102D01*
X130756439Y-55838085D01*
X130912004Y-55982428D01*
X130954261Y-56021637D01*
X131125352Y-56138285D01*
X131165130Y-56182797D01*
X131179500Y-56240738D01*
X131179500Y-61209262D01*
X131165130Y-61267203D01*
X131125352Y-61311715D01*
X130954261Y-61428362D01*
X130756439Y-61611915D01*
X130588184Y-61822899D01*
X130453257Y-62056601D01*
X130354666Y-62307804D01*
X130294616Y-62570899D01*
X130274450Y-62840000D01*
X126705549Y-62840000D01*
X126685383Y-62570897D01*
X126653609Y-62431686D01*
X126650500Y-62404093D01*
X126650500Y-55045907D01*
X126653609Y-55018314D01*
X126657202Y-55002569D01*
X126685383Y-54879103D01*
X126705549Y-54610000D01*
X126685383Y-54340897D01*
X126625334Y-54077805D01*
X126526743Y-53826602D01*
X126391815Y-53592898D01*
X126223561Y-53381915D01*
X126223560Y-53381914D01*
X126025743Y-53198366D01*
X125968205Y-53159137D01*
X125802775Y-53046349D01*
X125559641Y-52929262D01*
X125460250Y-52898604D01*
X125301771Y-52849719D01*
X125034929Y-52809500D01*
X124765071Y-52809500D01*
X124498228Y-52849719D01*
X124240359Y-52929262D01*
X123997228Y-53046347D01*
X123774257Y-53198366D01*
X123576439Y-53381915D01*
X123408184Y-53592899D01*
X123273257Y-53826601D01*
X123174666Y-54077804D01*
X123114616Y-54340899D01*
X123094450Y-54609999D01*
X123114616Y-54879100D01*
X123146391Y-55018314D01*
X123149500Y-55045907D01*
X123149500Y-62404093D01*
X123146391Y-62431686D01*
X123114616Y-62570899D01*
X123094450Y-62839999D01*
X123114616Y-63109100D01*
X123146391Y-63248314D01*
X123149500Y-63275907D01*
X123149500Y-88990501D01*
X123132887Y-89052501D01*
X123087500Y-89097888D01*
X123025500Y-89114501D01*
X121912128Y-89114501D01*
X121882322Y-89117705D01*
X121852515Y-89120909D01*
X121717669Y-89171204D01*
X121602454Y-89257454D01*
X121516204Y-89372668D01*
X121465909Y-89507516D01*
X121459500Y-89567130D01*
X121459500Y-99662869D01*
X120015500Y-99662869D01*
X120015500Y-50924500D01*
X120032113Y-50862500D01*
X120077500Y-50817113D01*
X120139500Y-50800500D01*
X170055500Y-50800500D01*
X170117500Y-50817113D01*
G37*
%TD.AperFunction*%
%TD*%
M02*
