M48
; DRILL file {KiCad 7.0.1} date Wed Mar 13 10:09:09 2024
; FORMAT={-:-/ absolute / inch / decimal}
; #@! TF.CreationDate,2024-03-13T10:09:09+01:00
; #@! TF.GenerationSoftware,Kicad,Pcbnew,7.0.1
; #@! TF.FileFunction,Plated,1,2,PTH
FMAT,2
INCH
; #@! TA.AperFunction,Plated,PTH,ViaDrill
T1C0.0157
; #@! TA.AperFunction,Plated,PTH,ComponentDrill
T2C0.0610
; #@! TA.AperFunction,Plated,PTH,ComponentDrill
T3C0.0630
%
G90
G05
T1
X5.175Y-2.825
X5.175Y-2.875
X5.225Y-2.825
X5.225Y-2.875
X5.225Y-3.4
X5.725Y-2.925
X5.725Y-3.05
X5.775Y-2.925
X5.775Y-3.05
X5.8Y-2.825
X5.9106Y-2.9252
X5.925Y-2.825
X6.2496Y-2.8614
X6.25Y-2.825
X6.2996Y-2.8629
X6.3Y-2.825
X6.475Y-3.475
X6.525Y-3.475
X6.575Y-3.475
X6.625Y-3.475
T2
X5.3394Y-2.15
X5.3394Y-2.474
X5.4469Y-2.15
X5.4469Y-2.474
X6.425Y-2.15
X6.425Y-2.474
X6.5325Y-2.15
X6.5325Y-2.474
T3
X4.9173Y-2.15
X4.9173Y-2.474
X5.2Y-2.15
X5.2Y-2.474
X6.003Y-2.15
X6.003Y-2.474
X6.2856Y-2.15
X6.2856Y-2.474
T0
M30
