%TF.GenerationSoftware,KiCad,Pcbnew,7.0.1*%
%TF.CreationDate,2024-03-13T10:09:07+01:00*%
%TF.ProjectId,bar_test_proto,6261725f-7465-4737-945f-70726f746f2e,rev?*%
%TF.SameCoordinates,Original*%
%TF.FileFunction,Legend,Top*%
%TF.FilePolarity,Positive*%
%FSLAX46Y46*%
G04 Gerber Fmt 4.6, Leading zero omitted, Abs format (unit mm)*
G04 Created by KiCad (PCBNEW 7.0.1) date 2024-03-13 10:09:07*
%MOMM*%
%LPD*%
G01*
G04 APERTURE LIST*
%ADD10C,0.150000*%
%ADD11C,0.100000*%
G04 APERTURE END LIST*
D10*
%TO.C,ADC1*%
X147510714Y-90981904D02*
X147986904Y-90981904D01*
X147415476Y-91267619D02*
X147748809Y-90267619D01*
X147748809Y-90267619D02*
X148082142Y-91267619D01*
X148415476Y-91267619D02*
X148415476Y-90267619D01*
X148415476Y-90267619D02*
X148653571Y-90267619D01*
X148653571Y-90267619D02*
X148796428Y-90315238D01*
X148796428Y-90315238D02*
X148891666Y-90410476D01*
X148891666Y-90410476D02*
X148939285Y-90505714D01*
X148939285Y-90505714D02*
X148986904Y-90696190D01*
X148986904Y-90696190D02*
X148986904Y-90839047D01*
X148986904Y-90839047D02*
X148939285Y-91029523D01*
X148939285Y-91029523D02*
X148891666Y-91124761D01*
X148891666Y-91124761D02*
X148796428Y-91220000D01*
X148796428Y-91220000D02*
X148653571Y-91267619D01*
X148653571Y-91267619D02*
X148415476Y-91267619D01*
X149986904Y-91172380D02*
X149939285Y-91220000D01*
X149939285Y-91220000D02*
X149796428Y-91267619D01*
X149796428Y-91267619D02*
X149701190Y-91267619D01*
X149701190Y-91267619D02*
X149558333Y-91220000D01*
X149558333Y-91220000D02*
X149463095Y-91124761D01*
X149463095Y-91124761D02*
X149415476Y-91029523D01*
X149415476Y-91029523D02*
X149367857Y-90839047D01*
X149367857Y-90839047D02*
X149367857Y-90696190D01*
X149367857Y-90696190D02*
X149415476Y-90505714D01*
X149415476Y-90505714D02*
X149463095Y-90410476D01*
X149463095Y-90410476D02*
X149558333Y-90315238D01*
X149558333Y-90315238D02*
X149701190Y-90267619D01*
X149701190Y-90267619D02*
X149796428Y-90267619D01*
X149796428Y-90267619D02*
X149939285Y-90315238D01*
X149939285Y-90315238D02*
X149986904Y-90362857D01*
X150939285Y-91267619D02*
X150367857Y-91267619D01*
X150653571Y-91267619D02*
X150653571Y-90267619D01*
X150653571Y-90267619D02*
X150558333Y-90410476D01*
X150558333Y-90410476D02*
X150463095Y-90505714D01*
X150463095Y-90505714D02*
X150367857Y-90553333D01*
%TO.C,R7*%
X152667619Y-68746666D02*
X152191428Y-69079999D01*
X152667619Y-69318094D02*
X151667619Y-69318094D01*
X151667619Y-69318094D02*
X151667619Y-68937142D01*
X151667619Y-68937142D02*
X151715238Y-68841904D01*
X151715238Y-68841904D02*
X151762857Y-68794285D01*
X151762857Y-68794285D02*
X151858095Y-68746666D01*
X151858095Y-68746666D02*
X152000952Y-68746666D01*
X152000952Y-68746666D02*
X152096190Y-68794285D01*
X152096190Y-68794285D02*
X152143809Y-68841904D01*
X152143809Y-68841904D02*
X152191428Y-68937142D01*
X152191428Y-68937142D02*
X152191428Y-69318094D01*
X151667619Y-68413332D02*
X151667619Y-67746666D01*
X151667619Y-67746666D02*
X152667619Y-68175237D01*
%TO.C,R9*%
X144736272Y-81153093D02*
X144260081Y-81486426D01*
X144736272Y-81724521D02*
X143736272Y-81724521D01*
X143736272Y-81724521D02*
X143736272Y-81343569D01*
X143736272Y-81343569D02*
X143783891Y-81248331D01*
X143783891Y-81248331D02*
X143831510Y-81200712D01*
X143831510Y-81200712D02*
X143926748Y-81153093D01*
X143926748Y-81153093D02*
X144069605Y-81153093D01*
X144069605Y-81153093D02*
X144164843Y-81200712D01*
X144164843Y-81200712D02*
X144212462Y-81248331D01*
X144212462Y-81248331D02*
X144260081Y-81343569D01*
X144260081Y-81343569D02*
X144260081Y-81724521D01*
X144736272Y-80676902D02*
X144736272Y-80486426D01*
X144736272Y-80486426D02*
X144688653Y-80391188D01*
X144688653Y-80391188D02*
X144641033Y-80343569D01*
X144641033Y-80343569D02*
X144498176Y-80248331D01*
X144498176Y-80248331D02*
X144307700Y-80200712D01*
X144307700Y-80200712D02*
X143926748Y-80200712D01*
X143926748Y-80200712D02*
X143831510Y-80248331D01*
X143831510Y-80248331D02*
X143783891Y-80295950D01*
X143783891Y-80295950D02*
X143736272Y-80391188D01*
X143736272Y-80391188D02*
X143736272Y-80581664D01*
X143736272Y-80581664D02*
X143783891Y-80676902D01*
X143783891Y-80676902D02*
X143831510Y-80724521D01*
X143831510Y-80724521D02*
X143926748Y-80772140D01*
X143926748Y-80772140D02*
X144164843Y-80772140D01*
X144164843Y-80772140D02*
X144260081Y-80724521D01*
X144260081Y-80724521D02*
X144307700Y-80676902D01*
X144307700Y-80676902D02*
X144355319Y-80581664D01*
X144355319Y-80581664D02*
X144355319Y-80391188D01*
X144355319Y-80391188D02*
X144307700Y-80295950D01*
X144307700Y-80295950D02*
X144260081Y-80248331D01*
X144260081Y-80248331D02*
X144164843Y-80200712D01*
%TO.C,R10*%
X141572454Y-81200688D02*
X141096263Y-81534021D01*
X141572454Y-81772116D02*
X140572454Y-81772116D01*
X140572454Y-81772116D02*
X140572454Y-81391164D01*
X140572454Y-81391164D02*
X140620073Y-81295926D01*
X140620073Y-81295926D02*
X140667692Y-81248307D01*
X140667692Y-81248307D02*
X140762930Y-81200688D01*
X140762930Y-81200688D02*
X140905787Y-81200688D01*
X140905787Y-81200688D02*
X141001025Y-81248307D01*
X141001025Y-81248307D02*
X141048644Y-81295926D01*
X141048644Y-81295926D02*
X141096263Y-81391164D01*
X141096263Y-81391164D02*
X141096263Y-81772116D01*
X141572454Y-80248307D02*
X141572454Y-80819735D01*
X141572454Y-80534021D02*
X140572454Y-80534021D01*
X140572454Y-80534021D02*
X140715311Y-80629259D01*
X140715311Y-80629259D02*
X140810549Y-80724497D01*
X140810549Y-80724497D02*
X140858168Y-80819735D01*
X140572454Y-79629259D02*
X140572454Y-79534021D01*
X140572454Y-79534021D02*
X140620073Y-79438783D01*
X140620073Y-79438783D02*
X140667692Y-79391164D01*
X140667692Y-79391164D02*
X140762930Y-79343545D01*
X140762930Y-79343545D02*
X140953406Y-79295926D01*
X140953406Y-79295926D02*
X141191501Y-79295926D01*
X141191501Y-79295926D02*
X141381977Y-79343545D01*
X141381977Y-79343545D02*
X141477215Y-79391164D01*
X141477215Y-79391164D02*
X141524835Y-79438783D01*
X141524835Y-79438783D02*
X141572454Y-79534021D01*
X141572454Y-79534021D02*
X141572454Y-79629259D01*
X141572454Y-79629259D02*
X141524835Y-79724497D01*
X141524835Y-79724497D02*
X141477215Y-79772116D01*
X141477215Y-79772116D02*
X141381977Y-79819735D01*
X141381977Y-79819735D02*
X141191501Y-79867354D01*
X141191501Y-79867354D02*
X140953406Y-79867354D01*
X140953406Y-79867354D02*
X140762930Y-79819735D01*
X140762930Y-79819735D02*
X140667692Y-79772116D01*
X140667692Y-79772116D02*
X140620073Y-79724497D01*
X140620073Y-79724497D02*
X140572454Y-79629259D01*
%TO.C,R6*%
X157408444Y-76434397D02*
X156932253Y-76767730D01*
X157408444Y-77005825D02*
X156408444Y-77005825D01*
X156408444Y-77005825D02*
X156408444Y-76624873D01*
X156408444Y-76624873D02*
X156456063Y-76529635D01*
X156456063Y-76529635D02*
X156503682Y-76482016D01*
X156503682Y-76482016D02*
X156598920Y-76434397D01*
X156598920Y-76434397D02*
X156741777Y-76434397D01*
X156741777Y-76434397D02*
X156837015Y-76482016D01*
X156837015Y-76482016D02*
X156884634Y-76529635D01*
X156884634Y-76529635D02*
X156932253Y-76624873D01*
X156932253Y-76624873D02*
X156932253Y-77005825D01*
X156408444Y-75577254D02*
X156408444Y-75767730D01*
X156408444Y-75767730D02*
X156456063Y-75862968D01*
X156456063Y-75862968D02*
X156503682Y-75910587D01*
X156503682Y-75910587D02*
X156646539Y-76005825D01*
X156646539Y-76005825D02*
X156837015Y-76053444D01*
X156837015Y-76053444D02*
X157217967Y-76053444D01*
X157217967Y-76053444D02*
X157313205Y-76005825D01*
X157313205Y-76005825D02*
X157360825Y-75958206D01*
X157360825Y-75958206D02*
X157408444Y-75862968D01*
X157408444Y-75862968D02*
X157408444Y-75672492D01*
X157408444Y-75672492D02*
X157360825Y-75577254D01*
X157360825Y-75577254D02*
X157313205Y-75529635D01*
X157313205Y-75529635D02*
X157217967Y-75482016D01*
X157217967Y-75482016D02*
X156979872Y-75482016D01*
X156979872Y-75482016D02*
X156884634Y-75529635D01*
X156884634Y-75529635D02*
X156837015Y-75577254D01*
X156837015Y-75577254D02*
X156789396Y-75672492D01*
X156789396Y-75672492D02*
X156789396Y-75862968D01*
X156789396Y-75862968D02*
X156837015Y-75958206D01*
X156837015Y-75958206D02*
X156884634Y-76005825D01*
X156884634Y-76005825D02*
X156979872Y-76053444D01*
%TO.C,+12V*%
X130953095Y-90886666D02*
X131715000Y-90886666D01*
X131334047Y-91267619D02*
X131334047Y-90505714D01*
X132714999Y-91267619D02*
X132143571Y-91267619D01*
X132429285Y-91267619D02*
X132429285Y-90267619D01*
X132429285Y-90267619D02*
X132334047Y-90410476D01*
X132334047Y-90410476D02*
X132238809Y-90505714D01*
X132238809Y-90505714D02*
X132143571Y-90553333D01*
X133095952Y-90362857D02*
X133143571Y-90315238D01*
X133143571Y-90315238D02*
X133238809Y-90267619D01*
X133238809Y-90267619D02*
X133476904Y-90267619D01*
X133476904Y-90267619D02*
X133572142Y-90315238D01*
X133572142Y-90315238D02*
X133619761Y-90362857D01*
X133619761Y-90362857D02*
X133667380Y-90458095D01*
X133667380Y-90458095D02*
X133667380Y-90553333D01*
X133667380Y-90553333D02*
X133619761Y-90696190D01*
X133619761Y-90696190D02*
X133048333Y-91267619D01*
X133048333Y-91267619D02*
X133667380Y-91267619D01*
X133953095Y-90267619D02*
X134286428Y-91267619D01*
X134286428Y-91267619D02*
X134619761Y-90267619D01*
D11*
%TO.C,CON2*%
X154763464Y-52632150D02*
X154715845Y-52679770D01*
X154715845Y-52679770D02*
X154572988Y-52727389D01*
X154572988Y-52727389D02*
X154477750Y-52727389D01*
X154477750Y-52727389D02*
X154334893Y-52679770D01*
X154334893Y-52679770D02*
X154239655Y-52584531D01*
X154239655Y-52584531D02*
X154192036Y-52489293D01*
X154192036Y-52489293D02*
X154144417Y-52298817D01*
X154144417Y-52298817D02*
X154144417Y-52155960D01*
X154144417Y-52155960D02*
X154192036Y-51965484D01*
X154192036Y-51965484D02*
X154239655Y-51870246D01*
X154239655Y-51870246D02*
X154334893Y-51775008D01*
X154334893Y-51775008D02*
X154477750Y-51727389D01*
X154477750Y-51727389D02*
X154572988Y-51727389D01*
X154572988Y-51727389D02*
X154715845Y-51775008D01*
X154715845Y-51775008D02*
X154763464Y-51822627D01*
X155382512Y-51727389D02*
X155572988Y-51727389D01*
X155572988Y-51727389D02*
X155668226Y-51775008D01*
X155668226Y-51775008D02*
X155763464Y-51870246D01*
X155763464Y-51870246D02*
X155811083Y-52060722D01*
X155811083Y-52060722D02*
X155811083Y-52394055D01*
X155811083Y-52394055D02*
X155763464Y-52584531D01*
X155763464Y-52584531D02*
X155668226Y-52679770D01*
X155668226Y-52679770D02*
X155572988Y-52727389D01*
X155572988Y-52727389D02*
X155382512Y-52727389D01*
X155382512Y-52727389D02*
X155287274Y-52679770D01*
X155287274Y-52679770D02*
X155192036Y-52584531D01*
X155192036Y-52584531D02*
X155144417Y-52394055D01*
X155144417Y-52394055D02*
X155144417Y-52060722D01*
X155144417Y-52060722D02*
X155192036Y-51870246D01*
X155192036Y-51870246D02*
X155287274Y-51775008D01*
X155287274Y-51775008D02*
X155382512Y-51727389D01*
X156239655Y-52727389D02*
X156239655Y-51727389D01*
X156239655Y-51727389D02*
X156811083Y-52727389D01*
X156811083Y-52727389D02*
X156811083Y-51727389D01*
X157239655Y-51822627D02*
X157287274Y-51775008D01*
X157287274Y-51775008D02*
X157382512Y-51727389D01*
X157382512Y-51727389D02*
X157620607Y-51727389D01*
X157620607Y-51727389D02*
X157715845Y-51775008D01*
X157715845Y-51775008D02*
X157763464Y-51822627D01*
X157763464Y-51822627D02*
X157811083Y-51917865D01*
X157811083Y-51917865D02*
X157811083Y-52013103D01*
X157811083Y-52013103D02*
X157763464Y-52155960D01*
X157763464Y-52155960D02*
X157192036Y-52727389D01*
X157192036Y-52727389D02*
X157811083Y-52727389D01*
D10*
%TO.C,ADC2*%
X156400714Y-90981904D02*
X156876904Y-90981904D01*
X156305476Y-91267619D02*
X156638809Y-90267619D01*
X156638809Y-90267619D02*
X156972142Y-91267619D01*
X157305476Y-91267619D02*
X157305476Y-90267619D01*
X157305476Y-90267619D02*
X157543571Y-90267619D01*
X157543571Y-90267619D02*
X157686428Y-90315238D01*
X157686428Y-90315238D02*
X157781666Y-90410476D01*
X157781666Y-90410476D02*
X157829285Y-90505714D01*
X157829285Y-90505714D02*
X157876904Y-90696190D01*
X157876904Y-90696190D02*
X157876904Y-90839047D01*
X157876904Y-90839047D02*
X157829285Y-91029523D01*
X157829285Y-91029523D02*
X157781666Y-91124761D01*
X157781666Y-91124761D02*
X157686428Y-91220000D01*
X157686428Y-91220000D02*
X157543571Y-91267619D01*
X157543571Y-91267619D02*
X157305476Y-91267619D01*
X158876904Y-91172380D02*
X158829285Y-91220000D01*
X158829285Y-91220000D02*
X158686428Y-91267619D01*
X158686428Y-91267619D02*
X158591190Y-91267619D01*
X158591190Y-91267619D02*
X158448333Y-91220000D01*
X158448333Y-91220000D02*
X158353095Y-91124761D01*
X158353095Y-91124761D02*
X158305476Y-91029523D01*
X158305476Y-91029523D02*
X158257857Y-90839047D01*
X158257857Y-90839047D02*
X158257857Y-90696190D01*
X158257857Y-90696190D02*
X158305476Y-90505714D01*
X158305476Y-90505714D02*
X158353095Y-90410476D01*
X158353095Y-90410476D02*
X158448333Y-90315238D01*
X158448333Y-90315238D02*
X158591190Y-90267619D01*
X158591190Y-90267619D02*
X158686428Y-90267619D01*
X158686428Y-90267619D02*
X158829285Y-90315238D01*
X158829285Y-90315238D02*
X158876904Y-90362857D01*
X159257857Y-90362857D02*
X159305476Y-90315238D01*
X159305476Y-90315238D02*
X159400714Y-90267619D01*
X159400714Y-90267619D02*
X159638809Y-90267619D01*
X159638809Y-90267619D02*
X159734047Y-90315238D01*
X159734047Y-90315238D02*
X159781666Y-90362857D01*
X159781666Y-90362857D02*
X159829285Y-90458095D01*
X159829285Y-90458095D02*
X159829285Y-90553333D01*
X159829285Y-90553333D02*
X159781666Y-90696190D01*
X159781666Y-90696190D02*
X159210238Y-91267619D01*
X159210238Y-91267619D02*
X159829285Y-91267619D01*
%TO.C,R3*%
X136355515Y-65829080D02*
X135879324Y-66162413D01*
X136355515Y-66400508D02*
X135355515Y-66400508D01*
X135355515Y-66400508D02*
X135355515Y-66019556D01*
X135355515Y-66019556D02*
X135403134Y-65924318D01*
X135403134Y-65924318D02*
X135450753Y-65876699D01*
X135450753Y-65876699D02*
X135545991Y-65829080D01*
X135545991Y-65829080D02*
X135688848Y-65829080D01*
X135688848Y-65829080D02*
X135784086Y-65876699D01*
X135784086Y-65876699D02*
X135831705Y-65924318D01*
X135831705Y-65924318D02*
X135879324Y-66019556D01*
X135879324Y-66019556D02*
X135879324Y-66400508D01*
X135355515Y-65495746D02*
X135355515Y-64876699D01*
X135355515Y-64876699D02*
X135736467Y-65210032D01*
X135736467Y-65210032D02*
X135736467Y-65067175D01*
X135736467Y-65067175D02*
X135784086Y-64971937D01*
X135784086Y-64971937D02*
X135831705Y-64924318D01*
X135831705Y-64924318D02*
X135926943Y-64876699D01*
X135926943Y-64876699D02*
X136165038Y-64876699D01*
X136165038Y-64876699D02*
X136260276Y-64924318D01*
X136260276Y-64924318D02*
X136307896Y-64971937D01*
X136307896Y-64971937D02*
X136355515Y-65067175D01*
X136355515Y-65067175D02*
X136355515Y-65352889D01*
X136355515Y-65352889D02*
X136307896Y-65448127D01*
X136307896Y-65448127D02*
X136260276Y-65495746D01*
D11*
%TO.C,CON1*%
X127202044Y-52191135D02*
X127154425Y-52238755D01*
X127154425Y-52238755D02*
X127011568Y-52286374D01*
X127011568Y-52286374D02*
X126916330Y-52286374D01*
X126916330Y-52286374D02*
X126773473Y-52238755D01*
X126773473Y-52238755D02*
X126678235Y-52143516D01*
X126678235Y-52143516D02*
X126630616Y-52048278D01*
X126630616Y-52048278D02*
X126582997Y-51857802D01*
X126582997Y-51857802D02*
X126582997Y-51714945D01*
X126582997Y-51714945D02*
X126630616Y-51524469D01*
X126630616Y-51524469D02*
X126678235Y-51429231D01*
X126678235Y-51429231D02*
X126773473Y-51333993D01*
X126773473Y-51333993D02*
X126916330Y-51286374D01*
X126916330Y-51286374D02*
X127011568Y-51286374D01*
X127011568Y-51286374D02*
X127154425Y-51333993D01*
X127154425Y-51333993D02*
X127202044Y-51381612D01*
X127821092Y-51286374D02*
X128011568Y-51286374D01*
X128011568Y-51286374D02*
X128106806Y-51333993D01*
X128106806Y-51333993D02*
X128202044Y-51429231D01*
X128202044Y-51429231D02*
X128249663Y-51619707D01*
X128249663Y-51619707D02*
X128249663Y-51953040D01*
X128249663Y-51953040D02*
X128202044Y-52143516D01*
X128202044Y-52143516D02*
X128106806Y-52238755D01*
X128106806Y-52238755D02*
X128011568Y-52286374D01*
X128011568Y-52286374D02*
X127821092Y-52286374D01*
X127821092Y-52286374D02*
X127725854Y-52238755D01*
X127725854Y-52238755D02*
X127630616Y-52143516D01*
X127630616Y-52143516D02*
X127582997Y-51953040D01*
X127582997Y-51953040D02*
X127582997Y-51619707D01*
X127582997Y-51619707D02*
X127630616Y-51429231D01*
X127630616Y-51429231D02*
X127725854Y-51333993D01*
X127725854Y-51333993D02*
X127821092Y-51286374D01*
X128678235Y-52286374D02*
X128678235Y-51286374D01*
X128678235Y-51286374D02*
X129249663Y-52286374D01*
X129249663Y-52286374D02*
X129249663Y-51286374D01*
X130249663Y-52286374D02*
X129678235Y-52286374D01*
X129963949Y-52286374D02*
X129963949Y-51286374D01*
X129963949Y-51286374D02*
X129868711Y-51429231D01*
X129868711Y-51429231D02*
X129773473Y-51524469D01*
X129773473Y-51524469D02*
X129678235Y-51572088D01*
D10*
%TO.C,GND*%
X165608095Y-90315238D02*
X165512857Y-90267619D01*
X165512857Y-90267619D02*
X165370000Y-90267619D01*
X165370000Y-90267619D02*
X165227143Y-90315238D01*
X165227143Y-90315238D02*
X165131905Y-90410476D01*
X165131905Y-90410476D02*
X165084286Y-90505714D01*
X165084286Y-90505714D02*
X165036667Y-90696190D01*
X165036667Y-90696190D02*
X165036667Y-90839047D01*
X165036667Y-90839047D02*
X165084286Y-91029523D01*
X165084286Y-91029523D02*
X165131905Y-91124761D01*
X165131905Y-91124761D02*
X165227143Y-91220000D01*
X165227143Y-91220000D02*
X165370000Y-91267619D01*
X165370000Y-91267619D02*
X165465238Y-91267619D01*
X165465238Y-91267619D02*
X165608095Y-91220000D01*
X165608095Y-91220000D02*
X165655714Y-91172380D01*
X165655714Y-91172380D02*
X165655714Y-90839047D01*
X165655714Y-90839047D02*
X165465238Y-90839047D01*
X166084286Y-91267619D02*
X166084286Y-90267619D01*
X166084286Y-90267619D02*
X166655714Y-91267619D01*
X166655714Y-91267619D02*
X166655714Y-90267619D01*
X167131905Y-91267619D02*
X167131905Y-90267619D01*
X167131905Y-90267619D02*
X167370000Y-90267619D01*
X167370000Y-90267619D02*
X167512857Y-90315238D01*
X167512857Y-90315238D02*
X167608095Y-90410476D01*
X167608095Y-90410476D02*
X167655714Y-90505714D01*
X167655714Y-90505714D02*
X167703333Y-90696190D01*
X167703333Y-90696190D02*
X167703333Y-90839047D01*
X167703333Y-90839047D02*
X167655714Y-91029523D01*
X167655714Y-91029523D02*
X167608095Y-91124761D01*
X167608095Y-91124761D02*
X167512857Y-91220000D01*
X167512857Y-91220000D02*
X167370000Y-91267619D01*
X167370000Y-91267619D02*
X167131905Y-91267619D01*
%TO.C,C3*%
X150912236Y-68780253D02*
X150959856Y-68827872D01*
X150959856Y-68827872D02*
X151007475Y-68970729D01*
X151007475Y-68970729D02*
X151007475Y-69065967D01*
X151007475Y-69065967D02*
X150959856Y-69208824D01*
X150959856Y-69208824D02*
X150864617Y-69304062D01*
X150864617Y-69304062D02*
X150769379Y-69351681D01*
X150769379Y-69351681D02*
X150578903Y-69399300D01*
X150578903Y-69399300D02*
X150436046Y-69399300D01*
X150436046Y-69399300D02*
X150245570Y-69351681D01*
X150245570Y-69351681D02*
X150150332Y-69304062D01*
X150150332Y-69304062D02*
X150055094Y-69208824D01*
X150055094Y-69208824D02*
X150007475Y-69065967D01*
X150007475Y-69065967D02*
X150007475Y-68970729D01*
X150007475Y-68970729D02*
X150055094Y-68827872D01*
X150055094Y-68827872D02*
X150102713Y-68780253D01*
X150007475Y-68446919D02*
X150007475Y-67827872D01*
X150007475Y-67827872D02*
X150388427Y-68161205D01*
X150388427Y-68161205D02*
X150388427Y-68018348D01*
X150388427Y-68018348D02*
X150436046Y-67923110D01*
X150436046Y-67923110D02*
X150483665Y-67875491D01*
X150483665Y-67875491D02*
X150578903Y-67827872D01*
X150578903Y-67827872D02*
X150816998Y-67827872D01*
X150816998Y-67827872D02*
X150912236Y-67875491D01*
X150912236Y-67875491D02*
X150959856Y-67923110D01*
X150959856Y-67923110D02*
X151007475Y-68018348D01*
X151007475Y-68018348D02*
X151007475Y-68304062D01*
X151007475Y-68304062D02*
X150959856Y-68399300D01*
X150959856Y-68399300D02*
X150912236Y-68446919D01*
%TO.C,C2*%
X154683184Y-76486997D02*
X154730804Y-76534616D01*
X154730804Y-76534616D02*
X154778423Y-76677473D01*
X154778423Y-76677473D02*
X154778423Y-76772711D01*
X154778423Y-76772711D02*
X154730804Y-76915568D01*
X154730804Y-76915568D02*
X154635565Y-77010806D01*
X154635565Y-77010806D02*
X154540327Y-77058425D01*
X154540327Y-77058425D02*
X154349851Y-77106044D01*
X154349851Y-77106044D02*
X154206994Y-77106044D01*
X154206994Y-77106044D02*
X154016518Y-77058425D01*
X154016518Y-77058425D02*
X153921280Y-77010806D01*
X153921280Y-77010806D02*
X153826042Y-76915568D01*
X153826042Y-76915568D02*
X153778423Y-76772711D01*
X153778423Y-76772711D02*
X153778423Y-76677473D01*
X153778423Y-76677473D02*
X153826042Y-76534616D01*
X153826042Y-76534616D02*
X153873661Y-76486997D01*
X153873661Y-76106044D02*
X153826042Y-76058425D01*
X153826042Y-76058425D02*
X153778423Y-75963187D01*
X153778423Y-75963187D02*
X153778423Y-75725092D01*
X153778423Y-75725092D02*
X153826042Y-75629854D01*
X153826042Y-75629854D02*
X153873661Y-75582235D01*
X153873661Y-75582235D02*
X153968899Y-75534616D01*
X153968899Y-75534616D02*
X154064137Y-75534616D01*
X154064137Y-75534616D02*
X154206994Y-75582235D01*
X154206994Y-75582235D02*
X154778423Y-76153663D01*
X154778423Y-76153663D02*
X154778423Y-75534616D01*
%TO.C,R2*%
X130242619Y-68746666D02*
X129766428Y-69079999D01*
X130242619Y-69318094D02*
X129242619Y-69318094D01*
X129242619Y-69318094D02*
X129242619Y-68937142D01*
X129242619Y-68937142D02*
X129290238Y-68841904D01*
X129290238Y-68841904D02*
X129337857Y-68794285D01*
X129337857Y-68794285D02*
X129433095Y-68746666D01*
X129433095Y-68746666D02*
X129575952Y-68746666D01*
X129575952Y-68746666D02*
X129671190Y-68794285D01*
X129671190Y-68794285D02*
X129718809Y-68841904D01*
X129718809Y-68841904D02*
X129766428Y-68937142D01*
X129766428Y-68937142D02*
X129766428Y-69318094D01*
X129337857Y-68365713D02*
X129290238Y-68318094D01*
X129290238Y-68318094D02*
X129242619Y-68222856D01*
X129242619Y-68222856D02*
X129242619Y-67984761D01*
X129242619Y-67984761D02*
X129290238Y-67889523D01*
X129290238Y-67889523D02*
X129337857Y-67841904D01*
X129337857Y-67841904D02*
X129433095Y-67794285D01*
X129433095Y-67794285D02*
X129528333Y-67794285D01*
X129528333Y-67794285D02*
X129671190Y-67841904D01*
X129671190Y-67841904D02*
X130242619Y-68413332D01*
X130242619Y-68413332D02*
X130242619Y-67794285D01*
%TO.C,R8*%
X162151248Y-68836558D02*
X161675057Y-69169891D01*
X162151248Y-69407986D02*
X161151248Y-69407986D01*
X161151248Y-69407986D02*
X161151248Y-69027034D01*
X161151248Y-69027034D02*
X161198867Y-68931796D01*
X161198867Y-68931796D02*
X161246486Y-68884177D01*
X161246486Y-68884177D02*
X161341724Y-68836558D01*
X161341724Y-68836558D02*
X161484581Y-68836558D01*
X161484581Y-68836558D02*
X161579819Y-68884177D01*
X161579819Y-68884177D02*
X161627438Y-68931796D01*
X161627438Y-68931796D02*
X161675057Y-69027034D01*
X161675057Y-69027034D02*
X161675057Y-69407986D01*
X161579819Y-68265129D02*
X161532200Y-68360367D01*
X161532200Y-68360367D02*
X161484581Y-68407986D01*
X161484581Y-68407986D02*
X161389343Y-68455605D01*
X161389343Y-68455605D02*
X161341724Y-68455605D01*
X161341724Y-68455605D02*
X161246486Y-68407986D01*
X161246486Y-68407986D02*
X161198867Y-68360367D01*
X161198867Y-68360367D02*
X161151248Y-68265129D01*
X161151248Y-68265129D02*
X161151248Y-68074653D01*
X161151248Y-68074653D02*
X161198867Y-67979415D01*
X161198867Y-67979415D02*
X161246486Y-67931796D01*
X161246486Y-67931796D02*
X161341724Y-67884177D01*
X161341724Y-67884177D02*
X161389343Y-67884177D01*
X161389343Y-67884177D02*
X161484581Y-67931796D01*
X161484581Y-67931796D02*
X161532200Y-67979415D01*
X161532200Y-67979415D02*
X161579819Y-68074653D01*
X161579819Y-68074653D02*
X161579819Y-68265129D01*
X161579819Y-68265129D02*
X161627438Y-68360367D01*
X161627438Y-68360367D02*
X161675057Y-68407986D01*
X161675057Y-68407986D02*
X161770295Y-68455605D01*
X161770295Y-68455605D02*
X161960771Y-68455605D01*
X161960771Y-68455605D02*
X162056009Y-68407986D01*
X162056009Y-68407986D02*
X162103629Y-68360367D01*
X162103629Y-68360367D02*
X162151248Y-68265129D01*
X162151248Y-68265129D02*
X162151248Y-68074653D01*
X162151248Y-68074653D02*
X162103629Y-67979415D01*
X162103629Y-67979415D02*
X162056009Y-67931796D01*
X162056009Y-67931796D02*
X161960771Y-67884177D01*
X161960771Y-67884177D02*
X161770295Y-67884177D01*
X161770295Y-67884177D02*
X161675057Y-67931796D01*
X161675057Y-67931796D02*
X161627438Y-67979415D01*
X161627438Y-67979415D02*
X161579819Y-68074653D01*
%TO.C,+24V*%
X122698095Y-90886666D02*
X123460000Y-90886666D01*
X123079047Y-91267619D02*
X123079047Y-90505714D01*
X123888571Y-90362857D02*
X123936190Y-90315238D01*
X123936190Y-90315238D02*
X124031428Y-90267619D01*
X124031428Y-90267619D02*
X124269523Y-90267619D01*
X124269523Y-90267619D02*
X124364761Y-90315238D01*
X124364761Y-90315238D02*
X124412380Y-90362857D01*
X124412380Y-90362857D02*
X124459999Y-90458095D01*
X124459999Y-90458095D02*
X124459999Y-90553333D01*
X124459999Y-90553333D02*
X124412380Y-90696190D01*
X124412380Y-90696190D02*
X123840952Y-91267619D01*
X123840952Y-91267619D02*
X124459999Y-91267619D01*
X125317142Y-90600952D02*
X125317142Y-91267619D01*
X125079047Y-90220000D02*
X124840952Y-90934285D01*
X124840952Y-90934285D02*
X125459999Y-90934285D01*
X125698095Y-90267619D02*
X126031428Y-91267619D01*
X126031428Y-91267619D02*
X126364761Y-90267619D01*
%TO.C,Vref*%
X139612857Y-90267619D02*
X139946190Y-91267619D01*
X139946190Y-91267619D02*
X140279523Y-90267619D01*
X140612857Y-91267619D02*
X140612857Y-90600952D01*
X140612857Y-90791428D02*
X140660476Y-90696190D01*
X140660476Y-90696190D02*
X140708095Y-90648571D01*
X140708095Y-90648571D02*
X140803333Y-90600952D01*
X140803333Y-90600952D02*
X140898571Y-90600952D01*
X141612857Y-91220000D02*
X141517619Y-91267619D01*
X141517619Y-91267619D02*
X141327143Y-91267619D01*
X141327143Y-91267619D02*
X141231905Y-91220000D01*
X141231905Y-91220000D02*
X141184286Y-91124761D01*
X141184286Y-91124761D02*
X141184286Y-90743809D01*
X141184286Y-90743809D02*
X141231905Y-90648571D01*
X141231905Y-90648571D02*
X141327143Y-90600952D01*
X141327143Y-90600952D02*
X141517619Y-90600952D01*
X141517619Y-90600952D02*
X141612857Y-90648571D01*
X141612857Y-90648571D02*
X141660476Y-90743809D01*
X141660476Y-90743809D02*
X141660476Y-90839047D01*
X141660476Y-90839047D02*
X141184286Y-90934285D01*
X141946191Y-90600952D02*
X142327143Y-90600952D01*
X142089048Y-91267619D02*
X142089048Y-90410476D01*
X142089048Y-90410476D02*
X142136667Y-90315238D01*
X142136667Y-90315238D02*
X142231905Y-90267619D01*
X142231905Y-90267619D02*
X142327143Y-90267619D01*
%TO.C,R1*%
X139616741Y-65776480D02*
X139140550Y-66109813D01*
X139616741Y-66347908D02*
X138616741Y-66347908D01*
X138616741Y-66347908D02*
X138616741Y-65966956D01*
X138616741Y-65966956D02*
X138664360Y-65871718D01*
X138664360Y-65871718D02*
X138711979Y-65824099D01*
X138711979Y-65824099D02*
X138807217Y-65776480D01*
X138807217Y-65776480D02*
X138950074Y-65776480D01*
X138950074Y-65776480D02*
X139045312Y-65824099D01*
X139045312Y-65824099D02*
X139092931Y-65871718D01*
X139092931Y-65871718D02*
X139140550Y-65966956D01*
X139140550Y-65966956D02*
X139140550Y-66347908D01*
X139616741Y-64824099D02*
X139616741Y-65395527D01*
X139616741Y-65109813D02*
X138616741Y-65109813D01*
X138616741Y-65109813D02*
X138759598Y-65205051D01*
X138759598Y-65205051D02*
X138854836Y-65300289D01*
X138854836Y-65300289D02*
X138902455Y-65395527D01*
%TO.C,U1*%
X144911519Y-69432423D02*
X144911519Y-70241946D01*
X144911519Y-70241946D02*
X144959138Y-70337184D01*
X144959138Y-70337184D02*
X145006757Y-70384804D01*
X145006757Y-70384804D02*
X145101995Y-70432423D01*
X145101995Y-70432423D02*
X145292471Y-70432423D01*
X145292471Y-70432423D02*
X145387709Y-70384804D01*
X145387709Y-70384804D02*
X145435328Y-70337184D01*
X145435328Y-70337184D02*
X145482947Y-70241946D01*
X145482947Y-70241946D02*
X145482947Y-69432423D01*
X146482947Y-70432423D02*
X145911519Y-70432423D01*
X146197233Y-70432423D02*
X146197233Y-69432423D01*
X146197233Y-69432423D02*
X146101995Y-69575280D01*
X146101995Y-69575280D02*
X146006757Y-69670518D01*
X146006757Y-69670518D02*
X145911519Y-69718137D01*
%TO.C,C1*%
X139560952Y-75362907D02*
X139608572Y-75410526D01*
X139608572Y-75410526D02*
X139656191Y-75553383D01*
X139656191Y-75553383D02*
X139656191Y-75648621D01*
X139656191Y-75648621D02*
X139608572Y-75791478D01*
X139608572Y-75791478D02*
X139513333Y-75886716D01*
X139513333Y-75886716D02*
X139418095Y-75934335D01*
X139418095Y-75934335D02*
X139227619Y-75981954D01*
X139227619Y-75981954D02*
X139084762Y-75981954D01*
X139084762Y-75981954D02*
X138894286Y-75934335D01*
X138894286Y-75934335D02*
X138799048Y-75886716D01*
X138799048Y-75886716D02*
X138703810Y-75791478D01*
X138703810Y-75791478D02*
X138656191Y-75648621D01*
X138656191Y-75648621D02*
X138656191Y-75553383D01*
X138656191Y-75553383D02*
X138703810Y-75410526D01*
X138703810Y-75410526D02*
X138751429Y-75362907D01*
X139656191Y-74410526D02*
X139656191Y-74981954D01*
X139656191Y-74696240D02*
X138656191Y-74696240D01*
X138656191Y-74696240D02*
X138799048Y-74791478D01*
X138799048Y-74791478D02*
X138894286Y-74886716D01*
X138894286Y-74886716D02*
X138941905Y-74981954D01*
%TO.C,R4*%
X136368665Y-75257706D02*
X135892474Y-75591039D01*
X136368665Y-75829134D02*
X135368665Y-75829134D01*
X135368665Y-75829134D02*
X135368665Y-75448182D01*
X135368665Y-75448182D02*
X135416284Y-75352944D01*
X135416284Y-75352944D02*
X135463903Y-75305325D01*
X135463903Y-75305325D02*
X135559141Y-75257706D01*
X135559141Y-75257706D02*
X135701998Y-75257706D01*
X135701998Y-75257706D02*
X135797236Y-75305325D01*
X135797236Y-75305325D02*
X135844855Y-75352944D01*
X135844855Y-75352944D02*
X135892474Y-75448182D01*
X135892474Y-75448182D02*
X135892474Y-75829134D01*
X135701998Y-74400563D02*
X136368665Y-74400563D01*
X135321046Y-74638658D02*
X136035331Y-74876753D01*
X136035331Y-74876753D02*
X136035331Y-74257706D01*
%TO.C,R5*%
X152335425Y-78076699D02*
X151859234Y-78410032D01*
X152335425Y-78648127D02*
X151335425Y-78648127D01*
X151335425Y-78648127D02*
X151335425Y-78267175D01*
X151335425Y-78267175D02*
X151383044Y-78171937D01*
X151383044Y-78171937D02*
X151430663Y-78124318D01*
X151430663Y-78124318D02*
X151525901Y-78076699D01*
X151525901Y-78076699D02*
X151668758Y-78076699D01*
X151668758Y-78076699D02*
X151763996Y-78124318D01*
X151763996Y-78124318D02*
X151811615Y-78171937D01*
X151811615Y-78171937D02*
X151859234Y-78267175D01*
X151859234Y-78267175D02*
X151859234Y-78648127D01*
X151335425Y-77171937D02*
X151335425Y-77648127D01*
X151335425Y-77648127D02*
X151811615Y-77695746D01*
X151811615Y-77695746D02*
X151763996Y-77648127D01*
X151763996Y-77648127D02*
X151716377Y-77552889D01*
X151716377Y-77552889D02*
X151716377Y-77314794D01*
X151716377Y-77314794D02*
X151763996Y-77219556D01*
X151763996Y-77219556D02*
X151811615Y-77171937D01*
X151811615Y-77171937D02*
X151906853Y-77124318D01*
X151906853Y-77124318D02*
X152144948Y-77124318D01*
X152144948Y-77124318D02*
X152240186Y-77171937D01*
X152240186Y-77171937D02*
X152287806Y-77219556D01*
X152287806Y-77219556D02*
X152335425Y-77314794D01*
X152335425Y-77314794D02*
X152335425Y-77552889D01*
X152335425Y-77552889D02*
X152287806Y-77648127D01*
X152287806Y-77648127D02*
X152240186Y-77695746D01*
%TO.C,R7*%
X153430000Y-69180000D02*
X153430000Y-67980000D01*
X155180000Y-67980000D02*
X155180000Y-69180000D01*
%TO.C,R9*%
X143270000Y-84420000D02*
X143270000Y-83220000D01*
X145020000Y-83220000D02*
X145020000Y-84420000D01*
%TO.C,R10*%
X141845000Y-83220000D02*
X141845000Y-84420000D01*
X140095000Y-84420000D02*
X140095000Y-83220000D01*
%TO.C,R6*%
X157720000Y-72425000D02*
X157720000Y-73625000D01*
X155970000Y-73625000D02*
X155970000Y-72425000D01*
%TO.C,R3*%
X135015000Y-69180000D02*
X135015000Y-67980000D01*
X136765000Y-67980000D02*
X136765000Y-69180000D01*
%TO.C,C3*%
X149602504Y-69040534D02*
X149602504Y-68040534D01*
X147902504Y-68040534D02*
X147902504Y-69040534D01*
%TO.C,C2*%
X155155000Y-73525000D02*
X155155000Y-72525000D01*
X153455000Y-72525000D02*
X153455000Y-73525000D01*
%TO.C,R2*%
X131005000Y-69580000D02*
X131005000Y-67580000D01*
X133155000Y-67580000D02*
X133155000Y-69580000D01*
%TO.C,R8*%
X158310000Y-69580000D02*
X158310000Y-67580000D01*
X160460000Y-67580000D02*
X160460000Y-69580000D01*
%TO.C,R1*%
X138190000Y-69180000D02*
X138190000Y-67980000D01*
X139940000Y-67980000D02*
X139940000Y-69180000D01*
%TO.C,U1*%
X147701000Y-71120000D02*
X147701000Y-76200000D01*
X146177000Y-71120000D02*
X146177000Y-71628000D01*
X143129000Y-71120000D02*
X147701000Y-71120000D01*
X146177000Y-71628000D02*
X144907000Y-71628000D01*
X144907000Y-71628000D02*
X144907000Y-71120000D01*
X147701000Y-76200000D02*
X143129000Y-76200000D01*
X143129000Y-76200000D02*
X143129000Y-71120000D01*
%TO.C,C1*%
X139915000Y-72890000D02*
X139915000Y-71890000D01*
X138215000Y-71890000D02*
X138215000Y-72890000D01*
%TO.C,R4*%
X136765000Y-71790000D02*
X136765000Y-72990000D01*
X135015000Y-72990000D02*
X135015000Y-71790000D01*
%TO.C,R5*%
X150890000Y-75530000D02*
X150890000Y-74330000D01*
X152640000Y-74330000D02*
X152640000Y-75530000D01*
%TD*%
M02*
