%TF.GenerationSoftware,KiCad,Pcbnew,7.0.1*%
%TF.CreationDate,2024-03-13T10:09:07+01:00*%
%TF.ProjectId,bar_test_proto,6261725f-7465-4737-945f-70726f746f2e,rev?*%
%TF.SameCoordinates,Original*%
%TF.FileFunction,Copper,L2,Bot*%
%TF.FilePolarity,Positive*%
%FSLAX46Y46*%
G04 Gerber Fmt 4.6, Leading zero omitted, Abs format (unit mm)*
G04 Created by KiCad (PCBNEW 7.0.1) date 2024-03-13 10:09:07*
%MOMM*%
%LPD*%
G01*
G04 APERTURE LIST*
%TA.AperFunction,ComponentPad*%
%ADD10C,2.600000*%
%TD*%
%TA.AperFunction,ComponentPad*%
%ADD11C,2.500000*%
%TD*%
%TA.AperFunction,ViaPad*%
%ADD12C,0.800000*%
%TD*%
%TA.AperFunction,Conductor*%
%ADD13C,0.400000*%
%TD*%
%TA.AperFunction,Conductor*%
%ADD14C,2.500000*%
%TD*%
G04 APERTURE END LIST*
D10*
%TO.P,CON2,1,D*%
%TO.N,+24V*%
X152475000Y-54610000D03*
X152475000Y-62840000D03*
%TO.P,CON2,2,S*%
%TO.N,Net-(CON2-S)*%
X159655000Y-54610000D03*
X159655000Y-62840000D03*
D11*
%TO.P,CON2,3,SK*%
%TO.N,unconnected-(CON2-SK-Pad3)*%
X163195000Y-54610000D03*
X163195000Y-62840000D03*
%TO.P,CON2,4,G*%
%TO.N,Net-(CON2-G)*%
X165925000Y-54610000D03*
X165925000Y-62840000D03*
%TD*%
D10*
%TO.P,CON1,1,D*%
%TO.N,+24V*%
X124900000Y-54610000D03*
X124900000Y-62840000D03*
%TO.P,CON1,2,S*%
%TO.N,Net-(CON1-S)*%
X132080000Y-54610000D03*
X132080000Y-62840000D03*
D11*
%TO.P,CON1,3,SK*%
%TO.N,unconnected-(CON1-SK-Pad3)*%
X135620000Y-54610000D03*
X135620000Y-62840000D03*
%TO.P,CON1,4,G*%
%TO.N,Net-(CON1-G)*%
X138350000Y-54610000D03*
X138350000Y-62840000D03*
%TD*%
D12*
%TO.N,ADC1*%
X145415000Y-77470000D03*
X145415000Y-74295000D03*
%TO.N,ADC2*%
X146685000Y-74295000D03*
X146685000Y-77470000D03*
%TO.N,GND*%
X167005000Y-88265000D03*
X158750000Y-71755000D03*
X164465000Y-88265000D03*
X131445000Y-73025000D03*
X165735000Y-88265000D03*
X168275000Y-88265000D03*
X160009122Y-72718544D03*
X158738919Y-72679581D03*
X132715000Y-73025000D03*
X132715000Y-71755000D03*
X131445000Y-71755000D03*
X160020000Y-71755000D03*
%TO.N,Net-(U1B--)*%
X150128780Y-74299390D03*
X150495000Y-71755000D03*
%TO.N,+12V0*%
X147320000Y-71755000D03*
X132715000Y-86360000D03*
%TD*%
D13*
%TO.N,ADC1*%
X145415000Y-77470000D02*
X145415000Y-74295000D01*
%TO.N,ADC2*%
X146685000Y-77470000D02*
X146685000Y-74295000D01*
D14*
%TO.N,+24V*%
X129320000Y-58420000D02*
X124900000Y-62840000D01*
X152475000Y-62840000D02*
X148055000Y-58420000D01*
X148055000Y-58420000D02*
X129320000Y-58420000D01*
D13*
%TO.N,Net-(U1B--)*%
X150128780Y-72121220D02*
X150495000Y-71755000D01*
X150128780Y-74299390D02*
X150128780Y-72121220D01*
%TO.N,+12V0*%
X132715000Y-86360000D02*
X132715000Y-84455000D01*
X145415000Y-71755000D02*
X147320000Y-71755000D01*
X132715000Y-84455000D02*
X145415000Y-71755000D01*
%TD*%
%TA.AperFunction,Conductor*%
%TO.N,GND*%
G36*
X170117500Y-50817113D02*
G01*
X170162887Y-50862500D01*
X170179500Y-50924500D01*
X170179500Y-100840500D01*
X170162887Y-100902500D01*
X170117500Y-100947887D01*
X170055500Y-100964500D01*
X120139500Y-100964500D01*
X120077500Y-100947887D01*
X120032113Y-100902500D01*
X120015500Y-100840500D01*
X120015500Y-86359999D01*
X131809540Y-86359999D01*
X131829326Y-86548257D01*
X131887820Y-86728284D01*
X131982466Y-86892216D01*
X132109129Y-87032889D01*
X132262269Y-87144151D01*
X132435197Y-87221144D01*
X132620352Y-87260500D01*
X132620354Y-87260500D01*
X132809646Y-87260500D01*
X132809648Y-87260500D01*
X132933083Y-87234262D01*
X132994803Y-87221144D01*
X133167730Y-87144151D01*
X133320871Y-87032888D01*
X133447533Y-86892216D01*
X133542179Y-86728284D01*
X133600674Y-86548256D01*
X133620460Y-86360000D01*
X133600674Y-86171744D01*
X133542179Y-85991716D01*
X133542179Y-85991715D01*
X133447533Y-85827783D01*
X133447350Y-85827580D01*
X133423736Y-85789045D01*
X133415500Y-85744608D01*
X133415500Y-84796519D01*
X133424939Y-84749066D01*
X133451819Y-84708838D01*
X134218606Y-83942051D01*
X144405226Y-73755430D01*
X144455617Y-73724852D01*
X144514436Y-73720997D01*
X144568390Y-73744736D01*
X144605286Y-73790707D01*
X144616787Y-73848519D01*
X144600294Y-73905110D01*
X144587820Y-73926715D01*
X144529326Y-74106742D01*
X144509540Y-74294999D01*
X144529326Y-74483257D01*
X144587820Y-74663284D01*
X144682466Y-74827216D01*
X144682650Y-74827420D01*
X144706264Y-74865955D01*
X144714500Y-74910392D01*
X144714500Y-76854608D01*
X144706264Y-76899045D01*
X144682650Y-76937580D01*
X144682466Y-76937783D01*
X144587820Y-77101715D01*
X144529326Y-77281742D01*
X144509540Y-77470000D01*
X144529326Y-77658257D01*
X144587820Y-77838284D01*
X144682466Y-78002216D01*
X144809129Y-78142889D01*
X144962269Y-78254151D01*
X145135197Y-78331144D01*
X145320352Y-78370500D01*
X145320354Y-78370500D01*
X145509646Y-78370500D01*
X145509648Y-78370500D01*
X145633083Y-78344262D01*
X145694803Y-78331144D01*
X145867730Y-78254151D01*
X145867729Y-78254151D01*
X145977115Y-78174679D01*
X146024219Y-78153707D01*
X146075781Y-78153707D01*
X146122885Y-78174679D01*
X146232269Y-78254151D01*
X146405197Y-78331144D01*
X146590352Y-78370500D01*
X146590354Y-78370500D01*
X146779646Y-78370500D01*
X146779648Y-78370500D01*
X146903083Y-78344262D01*
X146964803Y-78331144D01*
X147137730Y-78254151D01*
X147137729Y-78254151D01*
X147290870Y-78142889D01*
X147417533Y-78002216D01*
X147512179Y-77838284D01*
X147512178Y-77838284D01*
X147570674Y-77658256D01*
X147590460Y-77470000D01*
X147570674Y-77281744D01*
X147512179Y-77101716D01*
X147512179Y-77101715D01*
X147417533Y-76937783D01*
X147417350Y-76937580D01*
X147393736Y-76899045D01*
X147385500Y-76854608D01*
X147385500Y-74910392D01*
X147393736Y-74865955D01*
X147417350Y-74827420D01*
X147417533Y-74827216D01*
X147512179Y-74663284D01*
X147569247Y-74487647D01*
X147570674Y-74483256D01*
X147589999Y-74299390D01*
X149223320Y-74299390D01*
X149243106Y-74487647D01*
X149301600Y-74667674D01*
X149396246Y-74831606D01*
X149522909Y-74972279D01*
X149676049Y-75083541D01*
X149848977Y-75160534D01*
X150034132Y-75199890D01*
X150034134Y-75199890D01*
X150223426Y-75199890D01*
X150223428Y-75199890D01*
X150346863Y-75173652D01*
X150408583Y-75160534D01*
X150581510Y-75083541D01*
X150734651Y-74972278D01*
X150861313Y-74831606D01*
X150955959Y-74667674D01*
X151014454Y-74487646D01*
X151034240Y-74299390D01*
X151014454Y-74111134D01*
X150955959Y-73931106D01*
X150955959Y-73931105D01*
X150861313Y-73767173D01*
X150861130Y-73766970D01*
X150837516Y-73728435D01*
X150829280Y-73683998D01*
X150829280Y-72672415D01*
X150838309Y-72625964D01*
X150864082Y-72586277D01*
X150902843Y-72559135D01*
X150947730Y-72539151D01*
X151100871Y-72427888D01*
X151227533Y-72287216D01*
X151322179Y-72123284D01*
X151380674Y-71943256D01*
X151400460Y-71755000D01*
X151380674Y-71566744D01*
X151322179Y-71386716D01*
X151322179Y-71386715D01*
X151227533Y-71222783D01*
X151100870Y-71082110D01*
X150947730Y-70970848D01*
X150774802Y-70893855D01*
X150589648Y-70854500D01*
X150589646Y-70854500D01*
X150400354Y-70854500D01*
X150400352Y-70854500D01*
X150215197Y-70893855D01*
X150042269Y-70970848D01*
X149889129Y-71082110D01*
X149762466Y-71222783D01*
X149667820Y-71386715D01*
X149609326Y-71566741D01*
X149603469Y-71622467D01*
X149582197Y-71679945D01*
X149566432Y-71702784D01*
X149561996Y-71708814D01*
X149524900Y-71756165D01*
X149520741Y-71765406D01*
X149509721Y-71784945D01*
X149503962Y-71793289D01*
X149482633Y-71849525D01*
X149479769Y-71856439D01*
X149455083Y-71911290D01*
X149453255Y-71921267D01*
X149447234Y-71942868D01*
X149443639Y-71952348D01*
X149436389Y-72012047D01*
X149435263Y-72019446D01*
X149424421Y-72078611D01*
X149428054Y-72138654D01*
X149428280Y-72146141D01*
X149428280Y-73683998D01*
X149420044Y-73728435D01*
X149396430Y-73766970D01*
X149396246Y-73767173D01*
X149301600Y-73931105D01*
X149243106Y-74111132D01*
X149223320Y-74299390D01*
X147589999Y-74299390D01*
X147590460Y-74295000D01*
X147570674Y-74106744D01*
X147540332Y-74013363D01*
X147512179Y-73926715D01*
X147417533Y-73762783D01*
X147290870Y-73622110D01*
X147137730Y-73510848D01*
X146964802Y-73433855D01*
X146779648Y-73394500D01*
X146779646Y-73394500D01*
X146590354Y-73394500D01*
X146590352Y-73394500D01*
X146405197Y-73433855D01*
X146232269Y-73510848D01*
X146122885Y-73590321D01*
X146075781Y-73611293D01*
X146024219Y-73611293D01*
X145977115Y-73590321D01*
X145867730Y-73510848D01*
X145694802Y-73433855D01*
X145509648Y-73394500D01*
X145509646Y-73394500D01*
X145320354Y-73394500D01*
X145320352Y-73394500D01*
X145135199Y-73433854D01*
X145010245Y-73489488D01*
X144942981Y-73499061D01*
X144880769Y-73471752D01*
X144842287Y-73415759D01*
X144839086Y-73347892D01*
X144872127Y-73288529D01*
X145668838Y-72491819D01*
X145709066Y-72464939D01*
X145756519Y-72455500D01*
X146711844Y-72455500D01*
X146750162Y-72461569D01*
X146784728Y-72479181D01*
X146867270Y-72539151D01*
X146867271Y-72539151D01*
X146867272Y-72539152D01*
X147040197Y-72616144D01*
X147225352Y-72655500D01*
X147225354Y-72655500D01*
X147414646Y-72655500D01*
X147414648Y-72655500D01*
X147553603Y-72625964D01*
X147599803Y-72616144D01*
X147772730Y-72539151D01*
X147855271Y-72479182D01*
X147925870Y-72427889D01*
X148052533Y-72287216D01*
X148147179Y-72123284D01*
X148180918Y-72019446D01*
X148205674Y-71943256D01*
X148225460Y-71755000D01*
X148205674Y-71566744D01*
X148147179Y-71386716D01*
X148147179Y-71386715D01*
X148052533Y-71222783D01*
X147925870Y-71082110D01*
X147772730Y-70970848D01*
X147599802Y-70893855D01*
X147414648Y-70854500D01*
X147414646Y-70854500D01*
X147225354Y-70854500D01*
X147225352Y-70854500D01*
X147040197Y-70893855D01*
X146867272Y-70970847D01*
X146784730Y-71030818D01*
X146750162Y-71048431D01*
X146711844Y-71054500D01*
X145439910Y-71054500D01*
X145432423Y-71054274D01*
X145372391Y-71050642D01*
X145313242Y-71061481D01*
X145305843Y-71062608D01*
X145246122Y-71069860D01*
X145236641Y-71073456D01*
X145215036Y-71079479D01*
X145205067Y-71081306D01*
X145150228Y-71105986D01*
X145143313Y-71108850D01*
X145087067Y-71130182D01*
X145078720Y-71135943D01*
X145059192Y-71146957D01*
X145049948Y-71151118D01*
X145002597Y-71188214D01*
X144996568Y-71192649D01*
X144947070Y-71226816D01*
X144907183Y-71271838D01*
X144902051Y-71277290D01*
X132237290Y-83942051D01*
X132231838Y-83947183D01*
X132186816Y-83987070D01*
X132152649Y-84036568D01*
X132148213Y-84042597D01*
X132111121Y-84089942D01*
X132106961Y-84099186D01*
X132095941Y-84118725D01*
X132090182Y-84127069D01*
X132068853Y-84183305D01*
X132065989Y-84190219D01*
X132041303Y-84245070D01*
X132039475Y-84255047D01*
X132033454Y-84276648D01*
X132029859Y-84286128D01*
X132022609Y-84345827D01*
X132021483Y-84353226D01*
X132010641Y-84412391D01*
X132014274Y-84472434D01*
X132014500Y-84479921D01*
X132014500Y-85744608D01*
X132006264Y-85789045D01*
X131982650Y-85827580D01*
X131982466Y-85827783D01*
X131887820Y-85991715D01*
X131829326Y-86171742D01*
X131809540Y-86359999D01*
X120015500Y-86359999D01*
X120015500Y-62839999D01*
X123094450Y-62839999D01*
X123114616Y-63109100D01*
X123114617Y-63109103D01*
X123174666Y-63372195D01*
X123273257Y-63623398D01*
X123408185Y-63857102D01*
X123576439Y-64068085D01*
X123774259Y-64251635D01*
X123997226Y-64403651D01*
X124240359Y-64520738D01*
X124498228Y-64600280D01*
X124765071Y-64640500D01*
X125034929Y-64640500D01*
X125301772Y-64600280D01*
X125559641Y-64520738D01*
X125802775Y-64403651D01*
X126025741Y-64251635D01*
X126223561Y-64068085D01*
X126391815Y-63857102D01*
X126429189Y-63792364D01*
X126448892Y-63766687D01*
X127375579Y-62840000D01*
X130274450Y-62840000D01*
X130294616Y-63109100D01*
X130294617Y-63109103D01*
X130354666Y-63372195D01*
X130453257Y-63623398D01*
X130588185Y-63857102D01*
X130756439Y-64068085D01*
X130954259Y-64251635D01*
X131177226Y-64403651D01*
X131420359Y-64520738D01*
X131678228Y-64600280D01*
X131945071Y-64640500D01*
X132214929Y-64640500D01*
X132481772Y-64600280D01*
X132739641Y-64520738D01*
X132982775Y-64403651D01*
X133205741Y-64251635D01*
X133403561Y-64068085D01*
X133571815Y-63857102D01*
X133706743Y-63623398D01*
X133761430Y-63484058D01*
X133795271Y-63435983D01*
X133847458Y-63408899D01*
X133906253Y-63408899D01*
X133958440Y-63435983D01*
X133992284Y-63484061D01*
X134017721Y-63548874D01*
X134038432Y-63601643D01*
X134169614Y-63828857D01*
X134333195Y-64033981D01*
X134333197Y-64033983D01*
X134333198Y-64033984D01*
X134525514Y-64212428D01*
X134525520Y-64212432D01*
X134525521Y-64212433D01*
X134742296Y-64360228D01*
X134978677Y-64474063D01*
X135229385Y-64551396D01*
X135488818Y-64590500D01*
X135751182Y-64590500D01*
X136010615Y-64551396D01*
X136261323Y-64474063D01*
X136497704Y-64360228D01*
X136714479Y-64212433D01*
X136900659Y-64039683D01*
X136954402Y-64010416D01*
X137015598Y-64010416D01*
X137069340Y-64039683D01*
X137147592Y-64112289D01*
X137255518Y-64212431D01*
X137255521Y-64212433D01*
X137472296Y-64360228D01*
X137708677Y-64474063D01*
X137959385Y-64551396D01*
X138218818Y-64590500D01*
X138481182Y-64590500D01*
X138740615Y-64551396D01*
X138991323Y-64474063D01*
X139227704Y-64360228D01*
X139444479Y-64212433D01*
X139444482Y-64212429D01*
X139444485Y-64212428D01*
X139529792Y-64133273D01*
X139636805Y-64033981D01*
X139800386Y-63828857D01*
X139931568Y-63601643D01*
X140027420Y-63357416D01*
X140085802Y-63101630D01*
X140105408Y-62840000D01*
X140085802Y-62578370D01*
X140027420Y-62322584D01*
X139931568Y-62078357D01*
X139800386Y-61851143D01*
X139636805Y-61646019D01*
X139600050Y-61611915D01*
X139444485Y-61467571D01*
X139386976Y-61428362D01*
X139227704Y-61319772D01*
X138991323Y-61205937D01*
X138740615Y-61128604D01*
X138481182Y-61089500D01*
X138218818Y-61089500D01*
X137959385Y-61128604D01*
X137708677Y-61205937D01*
X137508131Y-61302515D01*
X137472296Y-61319772D01*
X137416357Y-61357910D01*
X137255518Y-61467568D01*
X137069341Y-61640316D01*
X137015598Y-61669583D01*
X136954402Y-61669583D01*
X136900659Y-61640316D01*
X136714481Y-61467568D01*
X136656976Y-61428362D01*
X136497704Y-61319772D01*
X136261323Y-61205937D01*
X136010615Y-61128604D01*
X135751182Y-61089500D01*
X135488818Y-61089500D01*
X135229385Y-61128604D01*
X134978677Y-61205937D01*
X134778131Y-61302515D01*
X134742296Y-61319772D01*
X134672922Y-61367070D01*
X134525514Y-61467571D01*
X134333198Y-61646015D01*
X134169613Y-61851143D01*
X134038432Y-62078357D01*
X133992284Y-62195938D01*
X133958440Y-62244016D01*
X133906253Y-62271100D01*
X133847458Y-62271100D01*
X133795271Y-62244016D01*
X133761429Y-62195938D01*
X133706743Y-62056602D01*
X133571815Y-61822898D01*
X133403561Y-61611915D01*
X133403560Y-61611914D01*
X133205743Y-61428366D01*
X133148205Y-61389137D01*
X132982775Y-61276349D01*
X132739641Y-61159262D01*
X132640250Y-61128604D01*
X132481771Y-61079719D01*
X132214929Y-61039500D01*
X131945071Y-61039500D01*
X131678228Y-61079719D01*
X131420359Y-61159262D01*
X131177228Y-61276347D01*
X130954257Y-61428366D01*
X130756439Y-61611915D01*
X130588184Y-61822899D01*
X130453257Y-62056601D01*
X130354666Y-62307804D01*
X130294616Y-62570899D01*
X130274450Y-62840000D01*
X127375579Y-62840000D01*
X130008761Y-60206819D01*
X130048990Y-60179939D01*
X130096443Y-60170500D01*
X147278557Y-60170500D01*
X147326010Y-60179939D01*
X147366238Y-60206819D01*
X150926103Y-63766684D01*
X150945809Y-63792365D01*
X150983183Y-63857100D01*
X150983185Y-63857102D01*
X151151439Y-64068085D01*
X151349259Y-64251635D01*
X151572226Y-64403651D01*
X151815359Y-64520738D01*
X152073228Y-64600280D01*
X152340071Y-64640500D01*
X152609929Y-64640500D01*
X152876772Y-64600280D01*
X153134641Y-64520738D01*
X153377775Y-64403651D01*
X153600741Y-64251635D01*
X153798561Y-64068085D01*
X153966815Y-63857102D01*
X154101743Y-63623398D01*
X154200334Y-63372195D01*
X154260383Y-63109103D01*
X154280549Y-62840000D01*
X157849450Y-62840000D01*
X157869616Y-63109100D01*
X157869617Y-63109103D01*
X157929666Y-63372195D01*
X158028257Y-63623398D01*
X158163185Y-63857102D01*
X158331439Y-64068085D01*
X158529259Y-64251635D01*
X158752226Y-64403651D01*
X158995359Y-64520738D01*
X159253228Y-64600280D01*
X159520071Y-64640500D01*
X159789929Y-64640500D01*
X160056772Y-64600280D01*
X160314641Y-64520738D01*
X160557775Y-64403651D01*
X160780741Y-64251635D01*
X160978561Y-64068085D01*
X161146815Y-63857102D01*
X161281743Y-63623398D01*
X161336430Y-63484058D01*
X161370271Y-63435983D01*
X161422458Y-63408899D01*
X161481253Y-63408899D01*
X161533440Y-63435983D01*
X161567284Y-63484061D01*
X161592721Y-63548874D01*
X161613432Y-63601643D01*
X161744614Y-63828857D01*
X161908195Y-64033981D01*
X161908197Y-64033983D01*
X161908198Y-64033984D01*
X162100514Y-64212428D01*
X162100520Y-64212432D01*
X162100521Y-64212433D01*
X162317296Y-64360228D01*
X162553677Y-64474063D01*
X162804385Y-64551396D01*
X163063818Y-64590500D01*
X163326182Y-64590500D01*
X163585615Y-64551396D01*
X163836323Y-64474063D01*
X164072704Y-64360228D01*
X164289479Y-64212433D01*
X164475659Y-64039683D01*
X164529402Y-64010416D01*
X164590598Y-64010416D01*
X164644340Y-64039683D01*
X164722592Y-64112289D01*
X164830518Y-64212431D01*
X164830521Y-64212433D01*
X165047296Y-64360228D01*
X165283677Y-64474063D01*
X165534385Y-64551396D01*
X165793818Y-64590500D01*
X166056182Y-64590500D01*
X166315615Y-64551396D01*
X166566323Y-64474063D01*
X166802704Y-64360228D01*
X167019479Y-64212433D01*
X167019482Y-64212429D01*
X167019485Y-64212428D01*
X167104792Y-64133273D01*
X167211805Y-64033981D01*
X167375386Y-63828857D01*
X167506568Y-63601643D01*
X167602420Y-63357416D01*
X167660802Y-63101630D01*
X167680408Y-62840000D01*
X167660802Y-62578370D01*
X167602420Y-62322584D01*
X167506568Y-62078357D01*
X167375386Y-61851143D01*
X167211805Y-61646019D01*
X167175050Y-61611915D01*
X167019485Y-61467571D01*
X166961976Y-61428362D01*
X166802704Y-61319772D01*
X166566323Y-61205937D01*
X166315615Y-61128604D01*
X166056182Y-61089500D01*
X165793818Y-61089500D01*
X165534385Y-61128604D01*
X165283677Y-61205937D01*
X165083131Y-61302515D01*
X165047296Y-61319772D01*
X164991357Y-61357910D01*
X164830518Y-61467568D01*
X164644341Y-61640316D01*
X164590598Y-61669583D01*
X164529402Y-61669583D01*
X164475659Y-61640316D01*
X164289481Y-61467568D01*
X164231976Y-61428362D01*
X164072704Y-61319772D01*
X163836323Y-61205937D01*
X163585615Y-61128604D01*
X163326182Y-61089500D01*
X163063818Y-61089500D01*
X162804385Y-61128604D01*
X162553677Y-61205937D01*
X162353131Y-61302515D01*
X162317296Y-61319772D01*
X162247922Y-61367070D01*
X162100514Y-61467571D01*
X161908198Y-61646015D01*
X161744613Y-61851143D01*
X161613432Y-62078357D01*
X161567284Y-62195938D01*
X161533440Y-62244016D01*
X161481253Y-62271100D01*
X161422458Y-62271100D01*
X161370271Y-62244016D01*
X161336429Y-62195938D01*
X161281743Y-62056602D01*
X161146815Y-61822898D01*
X160978561Y-61611915D01*
X160978560Y-61611914D01*
X160780743Y-61428366D01*
X160723205Y-61389137D01*
X160557775Y-61276349D01*
X160314641Y-61159262D01*
X160215250Y-61128604D01*
X160056771Y-61079719D01*
X159789929Y-61039500D01*
X159520071Y-61039500D01*
X159253228Y-61079719D01*
X158995359Y-61159262D01*
X158752228Y-61276347D01*
X158529257Y-61428366D01*
X158331439Y-61611915D01*
X158163184Y-61822899D01*
X158028257Y-62056601D01*
X157929666Y-62307804D01*
X157869616Y-62570899D01*
X157849450Y-62840000D01*
X154280549Y-62840000D01*
X154260383Y-62570897D01*
X154200334Y-62307805D01*
X154101743Y-62056602D01*
X153966815Y-61822898D01*
X153798561Y-61611915D01*
X153798560Y-61611914D01*
X153600739Y-61428362D01*
X153416148Y-61302510D01*
X153398319Y-61287738D01*
X149317577Y-57206996D01*
X149314360Y-57203657D01*
X149248978Y-57133192D01*
X149173841Y-57073273D01*
X149170269Y-57070314D01*
X149097396Y-57007601D01*
X149075451Y-56993812D01*
X149064112Y-56985767D01*
X149043854Y-56969612D01*
X148960617Y-56921555D01*
X148956645Y-56919162D01*
X148875247Y-56868016D01*
X148851492Y-56857652D01*
X148839082Y-56851387D01*
X148816644Y-56838432D01*
X148727158Y-56803311D01*
X148722876Y-56801537D01*
X148634773Y-56763098D01*
X148609742Y-56756391D01*
X148596540Y-56752047D01*
X148572420Y-56742581D01*
X148478683Y-56721185D01*
X148474185Y-56720069D01*
X148381348Y-56695194D01*
X148355601Y-56692293D01*
X148341895Y-56689964D01*
X148333506Y-56688049D01*
X148316627Y-56684197D01*
X148220768Y-56677013D01*
X148216152Y-56676580D01*
X148120637Y-56665818D01*
X148028559Y-56669264D01*
X148024592Y-56669413D01*
X148019957Y-56669500D01*
X129355043Y-56669500D01*
X129350407Y-56669413D01*
X129346286Y-56669258D01*
X129254362Y-56665818D01*
X129158846Y-56676580D01*
X129154231Y-56677013D01*
X129058371Y-56684197D01*
X129033092Y-56689966D01*
X129019394Y-56692293D01*
X128993649Y-56695194D01*
X128900809Y-56720071D01*
X128896310Y-56721187D01*
X128802580Y-56742581D01*
X128778452Y-56752050D01*
X128765248Y-56756395D01*
X128740223Y-56763100D01*
X128652129Y-56801535D01*
X128647846Y-56803309D01*
X128558355Y-56838432D01*
X128535909Y-56851391D01*
X128523498Y-56857656D01*
X128499758Y-56868013D01*
X128418375Y-56919149D01*
X128414406Y-56921540D01*
X128331142Y-56969614D01*
X128310880Y-56985771D01*
X128299551Y-56993809D01*
X128277600Y-57007603D01*
X128204724Y-57070317D01*
X128201156Y-57073274D01*
X128126019Y-57133194D01*
X128060638Y-57203657D01*
X128057422Y-57206995D01*
X123976674Y-61287743D01*
X123958845Y-61302515D01*
X123774260Y-61428363D01*
X123576439Y-61611914D01*
X123408184Y-61822899D01*
X123273257Y-62056601D01*
X123174666Y-62307804D01*
X123114616Y-62570899D01*
X123094450Y-62839999D01*
X120015500Y-62839999D01*
X120015500Y-54609999D01*
X123094450Y-54609999D01*
X123114616Y-54879100D01*
X123114617Y-54879103D01*
X123174666Y-55142195D01*
X123273257Y-55393398D01*
X123408185Y-55627102D01*
X123576439Y-55838085D01*
X123774259Y-56021635D01*
X123997226Y-56173651D01*
X124240359Y-56290738D01*
X124498228Y-56370280D01*
X124765071Y-56410500D01*
X125034929Y-56410500D01*
X125301772Y-56370280D01*
X125559641Y-56290738D01*
X125802775Y-56173651D01*
X126025741Y-56021635D01*
X126223561Y-55838085D01*
X126391815Y-55627102D01*
X126526743Y-55393398D01*
X126625334Y-55142195D01*
X126685383Y-54879103D01*
X126705549Y-54610000D01*
X130274450Y-54610000D01*
X130294616Y-54879100D01*
X130294617Y-54879103D01*
X130354666Y-55142195D01*
X130453257Y-55393398D01*
X130588185Y-55627102D01*
X130756439Y-55838085D01*
X130954259Y-56021635D01*
X131177226Y-56173651D01*
X131420359Y-56290738D01*
X131678228Y-56370280D01*
X131945071Y-56410500D01*
X132214929Y-56410500D01*
X132481772Y-56370280D01*
X132739641Y-56290738D01*
X132982775Y-56173651D01*
X133205741Y-56021635D01*
X133403561Y-55838085D01*
X133571815Y-55627102D01*
X133706743Y-55393398D01*
X133761430Y-55254058D01*
X133795271Y-55205983D01*
X133847458Y-55178899D01*
X133906253Y-55178899D01*
X133958440Y-55205983D01*
X133992284Y-55254061D01*
X134017721Y-55318874D01*
X134038432Y-55371643D01*
X134169614Y-55598857D01*
X134333195Y-55803981D01*
X134333197Y-55803983D01*
X134333198Y-55803984D01*
X134525514Y-55982428D01*
X134525520Y-55982432D01*
X134525521Y-55982433D01*
X134742296Y-56130228D01*
X134978677Y-56244063D01*
X135229385Y-56321396D01*
X135488818Y-56360500D01*
X135751182Y-56360500D01*
X136010615Y-56321396D01*
X136261323Y-56244063D01*
X136497704Y-56130228D01*
X136714479Y-55982433D01*
X136900659Y-55809683D01*
X136954402Y-55780416D01*
X137015598Y-55780416D01*
X137069340Y-55809683D01*
X137147592Y-55882289D01*
X137255518Y-55982431D01*
X137255521Y-55982433D01*
X137472296Y-56130228D01*
X137708677Y-56244063D01*
X137959385Y-56321396D01*
X138218818Y-56360500D01*
X138481182Y-56360500D01*
X138740615Y-56321396D01*
X138991323Y-56244063D01*
X139227704Y-56130228D01*
X139444479Y-55982433D01*
X139444482Y-55982429D01*
X139444485Y-55982428D01*
X139529792Y-55903273D01*
X139636805Y-55803981D01*
X139800386Y-55598857D01*
X139931568Y-55371643D01*
X140027420Y-55127416D01*
X140085802Y-54871630D01*
X140105408Y-54610000D01*
X150669450Y-54610000D01*
X150689616Y-54879100D01*
X150689617Y-54879103D01*
X150749666Y-55142195D01*
X150848257Y-55393398D01*
X150983185Y-55627102D01*
X151151439Y-55838085D01*
X151349259Y-56021635D01*
X151572226Y-56173651D01*
X151815359Y-56290738D01*
X152073228Y-56370280D01*
X152340071Y-56410500D01*
X152609929Y-56410500D01*
X152876772Y-56370280D01*
X153134641Y-56290738D01*
X153377775Y-56173651D01*
X153600741Y-56021635D01*
X153798561Y-55838085D01*
X153966815Y-55627102D01*
X154101743Y-55393398D01*
X154200334Y-55142195D01*
X154260383Y-54879103D01*
X154280549Y-54610000D01*
X157849450Y-54610000D01*
X157869616Y-54879100D01*
X157869617Y-54879103D01*
X157929666Y-55142195D01*
X158028257Y-55393398D01*
X158163185Y-55627102D01*
X158331439Y-55838085D01*
X158529259Y-56021635D01*
X158752226Y-56173651D01*
X158995359Y-56290738D01*
X159253228Y-56370280D01*
X159520071Y-56410500D01*
X159789929Y-56410500D01*
X160056772Y-56370280D01*
X160314641Y-56290738D01*
X160557775Y-56173651D01*
X160780741Y-56021635D01*
X160978561Y-55838085D01*
X161146815Y-55627102D01*
X161281743Y-55393398D01*
X161336430Y-55254058D01*
X161370271Y-55205983D01*
X161422458Y-55178899D01*
X161481253Y-55178899D01*
X161533440Y-55205983D01*
X161567284Y-55254061D01*
X161592721Y-55318874D01*
X161613432Y-55371643D01*
X161744614Y-55598857D01*
X161908195Y-55803981D01*
X161908197Y-55803983D01*
X161908198Y-55803984D01*
X162100514Y-55982428D01*
X162100520Y-55982432D01*
X162100521Y-55982433D01*
X162317296Y-56130228D01*
X162553677Y-56244063D01*
X162804385Y-56321396D01*
X163063818Y-56360500D01*
X163326182Y-56360500D01*
X163585615Y-56321396D01*
X163836323Y-56244063D01*
X164072704Y-56130228D01*
X164289479Y-55982433D01*
X164475659Y-55809683D01*
X164529402Y-55780416D01*
X164590598Y-55780416D01*
X164644340Y-55809683D01*
X164722592Y-55882289D01*
X164830518Y-55982431D01*
X164830521Y-55982433D01*
X165047296Y-56130228D01*
X165283677Y-56244063D01*
X165534385Y-56321396D01*
X165793818Y-56360500D01*
X166056182Y-56360500D01*
X166315615Y-56321396D01*
X166566323Y-56244063D01*
X166802704Y-56130228D01*
X167019479Y-55982433D01*
X167019482Y-55982429D01*
X167019485Y-55982428D01*
X167104792Y-55903273D01*
X167211805Y-55803981D01*
X167375386Y-55598857D01*
X167506568Y-55371643D01*
X167602420Y-55127416D01*
X167660802Y-54871630D01*
X167680408Y-54610000D01*
X167660802Y-54348370D01*
X167602420Y-54092584D01*
X167506568Y-53848357D01*
X167375386Y-53621143D01*
X167211805Y-53416019D01*
X167175050Y-53381915D01*
X167019485Y-53237571D01*
X166961980Y-53198365D01*
X166802704Y-53089772D01*
X166566323Y-52975937D01*
X166315615Y-52898604D01*
X166056182Y-52859500D01*
X165793818Y-52859500D01*
X165534385Y-52898604D01*
X165283677Y-52975937D01*
X165047296Y-53089772D01*
X164991357Y-53127910D01*
X164830518Y-53237568D01*
X164644341Y-53410316D01*
X164590598Y-53439583D01*
X164529402Y-53439583D01*
X164475659Y-53410316D01*
X164289481Y-53237568D01*
X164231980Y-53198365D01*
X164072704Y-53089772D01*
X163836323Y-52975937D01*
X163585615Y-52898604D01*
X163326182Y-52859500D01*
X163063818Y-52859500D01*
X162804385Y-52898604D01*
X162553677Y-52975937D01*
X162317296Y-53089772D01*
X162247922Y-53137070D01*
X162100514Y-53237571D01*
X161908198Y-53416015D01*
X161744613Y-53621143D01*
X161613432Y-53848357D01*
X161567284Y-53965938D01*
X161533440Y-54014016D01*
X161481253Y-54041100D01*
X161422458Y-54041100D01*
X161370271Y-54014016D01*
X161336429Y-53965938D01*
X161281743Y-53826602D01*
X161146815Y-53592898D01*
X160978561Y-53381915D01*
X160978560Y-53381914D01*
X160780743Y-53198366D01*
X160723205Y-53159137D01*
X160557775Y-53046349D01*
X160314641Y-52929262D01*
X160215250Y-52898604D01*
X160056771Y-52849719D01*
X159789929Y-52809500D01*
X159520071Y-52809500D01*
X159253228Y-52849719D01*
X158995359Y-52929262D01*
X158752228Y-53046347D01*
X158529257Y-53198366D01*
X158331439Y-53381915D01*
X158163184Y-53592899D01*
X158028257Y-53826601D01*
X157929666Y-54077804D01*
X157869616Y-54340899D01*
X157849450Y-54610000D01*
X154280549Y-54610000D01*
X154260383Y-54340897D01*
X154200334Y-54077805D01*
X154101743Y-53826602D01*
X153966815Y-53592898D01*
X153798561Y-53381915D01*
X153798560Y-53381914D01*
X153600743Y-53198366D01*
X153543205Y-53159137D01*
X153377775Y-53046349D01*
X153134641Y-52929262D01*
X153035250Y-52898604D01*
X152876771Y-52849719D01*
X152609929Y-52809500D01*
X152340071Y-52809500D01*
X152073228Y-52849719D01*
X151815359Y-52929262D01*
X151572228Y-53046347D01*
X151349257Y-53198366D01*
X151151439Y-53381915D01*
X150983184Y-53592899D01*
X150848257Y-53826601D01*
X150749666Y-54077804D01*
X150689616Y-54340899D01*
X150669450Y-54610000D01*
X140105408Y-54610000D01*
X140085802Y-54348370D01*
X140027420Y-54092584D01*
X139931568Y-53848357D01*
X139800386Y-53621143D01*
X139636805Y-53416019D01*
X139600050Y-53381915D01*
X139444485Y-53237571D01*
X139386980Y-53198365D01*
X139227704Y-53089772D01*
X138991323Y-52975937D01*
X138740615Y-52898604D01*
X138481182Y-52859500D01*
X138218818Y-52859500D01*
X137959385Y-52898604D01*
X137708677Y-52975937D01*
X137472296Y-53089772D01*
X137416357Y-53127910D01*
X137255518Y-53237568D01*
X137069341Y-53410316D01*
X137015598Y-53439583D01*
X136954402Y-53439583D01*
X136900659Y-53410316D01*
X136714481Y-53237568D01*
X136656980Y-53198365D01*
X136497704Y-53089772D01*
X136261323Y-52975937D01*
X136010615Y-52898604D01*
X135751182Y-52859500D01*
X135488818Y-52859500D01*
X135229385Y-52898604D01*
X134978677Y-52975937D01*
X134742296Y-53089772D01*
X134672922Y-53137070D01*
X134525514Y-53237571D01*
X134333198Y-53416015D01*
X134169613Y-53621143D01*
X134038432Y-53848357D01*
X133992284Y-53965938D01*
X133958440Y-54014016D01*
X133906253Y-54041100D01*
X133847458Y-54041100D01*
X133795271Y-54014016D01*
X133761429Y-53965938D01*
X133706743Y-53826602D01*
X133571815Y-53592898D01*
X133403561Y-53381915D01*
X133403560Y-53381914D01*
X133205743Y-53198366D01*
X133148205Y-53159137D01*
X132982775Y-53046349D01*
X132739641Y-52929262D01*
X132640250Y-52898604D01*
X132481771Y-52849719D01*
X132214929Y-52809500D01*
X131945071Y-52809500D01*
X131678228Y-52849719D01*
X131420359Y-52929262D01*
X131177228Y-53046347D01*
X130954257Y-53198366D01*
X130756439Y-53381915D01*
X130588184Y-53592899D01*
X130453257Y-53826601D01*
X130354666Y-54077804D01*
X130294616Y-54340899D01*
X130274450Y-54610000D01*
X126705549Y-54610000D01*
X126685383Y-54340897D01*
X126625334Y-54077805D01*
X126526743Y-53826602D01*
X126391815Y-53592898D01*
X126223561Y-53381915D01*
X126223560Y-53381914D01*
X126025743Y-53198366D01*
X125968205Y-53159137D01*
X125802775Y-53046349D01*
X125559641Y-52929262D01*
X125460250Y-52898604D01*
X125301771Y-52849719D01*
X125034929Y-52809500D01*
X124765071Y-52809500D01*
X124498228Y-52849719D01*
X124240359Y-52929262D01*
X123997228Y-53046347D01*
X123774257Y-53198366D01*
X123576439Y-53381915D01*
X123408184Y-53592899D01*
X123273257Y-53826601D01*
X123174666Y-54077804D01*
X123114616Y-54340899D01*
X123094450Y-54609999D01*
X120015500Y-54609999D01*
X120015500Y-50924500D01*
X120032113Y-50862500D01*
X120077500Y-50817113D01*
X120139500Y-50800500D01*
X170055500Y-50800500D01*
X170117500Y-50817113D01*
G37*
%TD.AperFunction*%
%TD*%
M02*
